<svg width="24" height="24" viewBox="0 0 24 24" fill="none" xmlns="http://www.w3.org/2000/svg">
<g id="streamlinehq-interface-alert-alarm-bell-2-&#10;          solid-14-ico_62uyj402NDpNO92n" clip-path="url(#clip0_703_2446)">
<path id="Vector" fill-rule="evenodd" clip-rule="evenodd" d="M6.70075 2.62353C8.10617 1.21812 10.0123 0.428558 11.9999 0.428558C13.9875 0.428558 15.8936 1.21812 17.299 2.62353C18.7045 4.02895 19.4939 5.93512 19.4939 7.9227C19.4939 8.85407 19.646 9.74416 19.8887 10.6887C19.9508 10.8806 20.0183 11.0609 20.0903 11.2302C20.1875 11.4587 20.384 11.656 20.7615 11.8975C20.9089 11.9919 21.0598 12.0786 21.2312 12.1771L21.3915 12.2695C21.6196 12.4016 21.8764 12.555 22.1218 12.7365C23.0084 13.393 23.3344 14.4046 23.2904 15.3166C23.2475 16.2041 22.8496 17.1292 22.1072 17.6875C22.0971 17.6955 22.0856 17.7043 22.0729 17.7137C22.0427 17.7363 22.005 17.7627 21.9587 17.7924C21.8663 17.8519 21.7398 17.9244 21.5711 18.0051C21.2343 18.1664 20.7263 18.3617 19.9792 18.5506C18.488 18.9274 16.018 19.2857 11.9999 19.2857C7.98175 19.2857 5.51172 18.9274 4.02055 18.5506C3.27348 18.3617 2.76557 18.1664 2.42863 18.0051C2.25992 17.9244 2.13348 17.8519 2.04104 17.7924C1.99481 17.7627 1.9571 17.7363 1.92686 17.7137C1.91415 17.7043 1.90275 17.6955 1.89262 17.6875C1.15015 17.1292 0.752316 16.2041 0.709459 15.3166C0.665417 14.4046 0.991346 13.393 1.8781 12.7365L2.3881 13.4254L1.8781 12.7365C2.12335 12.5549 2.3801 12.4016 2.60825 12.2695L2.76859 12.1771L2.76862 12.1771C2.94007 12.0786 3.09096 11.9919 3.23837 11.8976C3.61577 11.6561 3.81219 11.4588 3.90934 11.2303C4.25614 10.4147 4.50576 9.33739 4.50576 7.9227C4.50576 5.93512 5.29532 4.02895 6.70075 2.62353ZM10.0084 20.545C9.67503 20.4315 9.30626 20.5335 9.07855 20.8022C8.85086 21.0708 8.81057 21.4514 8.97699 21.7616C9.55376 22.837 10.6904 23.5714 11.9999 23.5714C13.3095 23.5714 14.4461 22.837 15.0229 21.7616C15.1893 21.4514 15.149 21.0708 14.9213 20.8022C14.6936 20.5335 14.3248 20.4315 13.9915 20.545C13.5573 20.6926 12.9159 20.8056 11.9999 20.8056C11.084 20.8056 10.4426 20.6926 10.0084 20.545Z" fill="#CBCBCB"/>
</g>
<defs>
<clipPath id="clip0_703_2446">
<rect width="24" height="24" fill="white"/>
</clipPath>
</defs>
</svg>
