<svg width="14" height="14" viewBox="0 0 14 14" fill="none" xmlns="http://www.w3.org/2000/svg">
<g id="streamlinehq-mail-chat-bubble-text-square-&#10;          solid-14-ico_U049LxHtbeNZDUEK" clip-path="url(#clip0_1267_6261)">
<path id="Vector" fill-rule="evenodd" clip-rule="evenodd" d="M7.25001 0.25C5.91275 0.25 4.46305 0.368017 3.1512 0.516684C2.02052 0.644821 1.13436 1.54033 1.01094 2.66898C0.868408 3.97233 0.750049 5.42041 0.750049 6.75C0.750049 7.82272 0.827084 8.97326 0.931485 10.0615L0.261421 13.1438C0.224909 13.3117 0.277225 13.4867 0.399953 13.607C0.52268 13.7274 0.698614 13.7762 0.86582 13.7364L3.74635 13.0506C4.89238 13.1662 6.11173 13.25 7.25001 13.25C8.58686 13.25 10.0373 13.1344 11.3501 12.9871C12.4814 12.8601 13.3677 11.9643 13.4906 10.8354C13.6326 9.53032 13.75 8.07968 13.75 6.75C13.75 5.42062 13.6326 3.9727 13.4907 2.66923C13.3677 1.54036 12.4814 0.644814 11.3507 0.516726C10.0382 0.368038 8.58739 0.25 7.25001 0.25ZM4.1875 5.5C4.1875 5.15482 4.46732 4.875 4.8125 4.875H9.6875C10.0327 4.875 10.3125 5.15482 10.3125 5.5C10.3125 5.84518 10.0327 6.125 9.6875 6.125H4.8125C4.46732 6.125 4.1875 5.84518 4.1875 5.5ZM4.8125 7.875C4.46732 7.875 4.1875 8.15482 4.1875 8.5C4.1875 8.84518 4.46732 9.125 4.8125 9.125H8.5C8.84518 9.125 9.125 8.84518 9.125 8.5C9.125 8.15482 8.84518 7.875 8.5 7.875H4.8125Z" fill="#A3A3A3"/>
</g>
<defs>
<clipPath id="clip0_1267_6261">
<rect width="14" height="14" fill="white"/>
</clipPath>
</defs>
</svg>
