<svg width="83" height="89" viewBox="0 0 83 89" fill="none" xmlns="http://www.w3.org/2000/svg">
<circle cx="41.5" cy="41.5" r="41.5" fill="#D9D9D9"/>
<circle cx="41.5" cy="41.5" r="41.5" fill="#E8F3FF"/>
<circle cx="41.5" cy="28.5" r="10.5" fill="#73B6FF"/>
<path fill-rule="evenodd" clip-rule="evenodd" d="M23.0792 53.8839C22.187 56.5942 24.52 59.0226 27.3734 59.0226H55.5838C58.4371 59.0226 60.7702 56.5942 59.878 53.8839C57.334 46.1565 50.0577 40.5781 41.4786 40.5781C32.8995 40.5781 25.6232 46.1565 23.0792 53.8839Z" fill="#73B6FF"/>
<g filter="url(#filter0_d_2221_6531)">
<circle cx="64.5" cy="70.5" r="12.5" fill="white"/>
</g>
<path fill-rule="evenodd" clip-rule="evenodd" d="M70.096 65.904C68.8582 64.6662 66.8398 64.7045 65.6499 65.9884L60.3895 71.6639C60.1589 71.9126 59.9842 72.2078 59.8769 72.5296L59.0842 74.9077C58.6705 76.1488 59.8512 77.3295 61.0923 76.9158L63.4704 76.1231C63.7922 76.0158 64.0873 75.8411 64.3361 75.6105L70.0116 70.3501C71.2954 69.1602 71.3339 67.1418 70.096 65.904Z" fill="black"/>
<defs>
<filter id="filter0_d_2221_6531" x="50" y="56" width="33" height="33" filterUnits="userSpaceOnUse" color-interpolation-filters="sRGB">
<feFlood flood-opacity="0" result="BackgroundImageFix"/>
<feColorMatrix in="SourceAlpha" type="matrix" values="0 0 0 0 0 0 0 0 0 0 0 0 0 0 0 0 0 0 127 0" result="hardAlpha"/>
<feOffset dx="2" dy="2"/>
<feGaussianBlur stdDeviation="2"/>
<feComposite in2="hardAlpha" operator="out"/>
<feColorMatrix type="matrix" values="0 0 0 0 0.441667 0 0 0 0 0.441667 0 0 0 0 0.441667 0 0 0 0.25 0"/>
<feBlend mode="normal" in2="BackgroundImageFix" result="effect1_dropShadow_2221_6531"/>
<feBlend mode="normal" in="SourceGraphic" in2="effect1_dropShadow_2221_6531" result="shape"/>
</filter>
</defs>
</svg>
