<svg width="32" height="18" viewBox="0 0 32 18" fill="none" xmlns="http://www.w3.org/2000/svg">
<path d="M0.828 12.48C1.788 11.916 2.598 11.418 3.258 10.986C3.93 10.542 4.488 10.14 4.932 9.78C5.376 9.408 5.724 9.066 5.976 8.754C6.228 8.43 6.414 8.112 6.534 7.8C6.666 7.476 6.744 7.14 6.768 6.792C6.804 6.444 6.822 6.054 6.822 5.622V3.984H1.152V2.454H8.586V5.64C8.586 6.18 8.568 6.672 8.532 7.116C8.508 7.548 8.424 7.962 8.28 8.358C8.136 8.742 7.92 9.126 7.632 9.51C7.356 9.882 6.96 10.284 6.444 10.716C5.94 11.148 5.304 11.622 4.536 12.138C3.78 12.654 2.856 13.242 1.764 13.902L0.828 12.48ZM12.096 17.52V0.923999H13.878V17.52H12.096ZM18.2943 3.786V6.936H23.7663V8.448H18.2943V11.814H19.8603C20.4603 11.814 21.0063 11.808 21.4983 11.796C21.9903 11.784 22.4523 11.766 22.8843 11.742C23.3283 11.706 23.7603 11.67 24.1803 11.634C24.6123 11.586 25.0623 11.526 25.5303 11.454L25.7283 12.966C25.3083 13.026 24.8823 13.08 24.4503 13.128C24.0303 13.176 23.5683 13.218 23.0643 13.254C22.5723 13.278 22.0263 13.302 21.4263 13.326C20.8383 13.338 20.1723 13.344 19.4283 13.344H16.5303V2.256H24.1263V3.786H18.2943ZM31.1823 8.538H28.6263V17.52H26.8443V0.923999H28.6263V6.99H31.1823V8.538Z" fill="#333333"/>
</svg>
