<svg width="31" height="18" viewBox="0 0 31 18" fill="none" xmlns="http://www.w3.org/2000/svg">
<path d="M12.716 17.448H11.438V0.995999H12.716V17.448ZM0.0260001 12.678C1.406 11.886 2.504 11.208 3.32 10.644C4.136 10.068 4.754 9.534 5.174 9.042C5.594 8.538 5.864 8.034 5.984 7.53C6.116 7.026 6.182 6.438 6.182 5.766V3.696H0.206V2.544H7.424V5.784C7.424 6.336 7.394 6.834 7.334 7.278C7.274 7.722 7.154 8.142 6.974 8.538C6.806 8.934 6.566 9.318 6.254 9.69C5.942 10.062 5.534 10.452 5.03 10.86C4.538 11.268 3.932 11.706 3.212 12.174C2.504 12.63 1.664 13.14 0.692 13.704L0.0260001 12.678ZM23.1083 2.328V3.462H16.8803V7.134H22.7483V8.268H16.8803V12.084H19.1843C20.0243 12.084 20.9003 12.06 21.8123 12.012C22.7243 11.952 23.6663 11.85 24.6383 11.706L24.7823 12.84C23.8103 12.996 22.8203 13.104 21.8123 13.164C20.8043 13.212 19.8203 13.236 18.8603 13.236H15.6023V2.328H23.1083ZM27.4463 7.17H30.1823V8.304H27.4463V17.448H26.1683V0.995999H27.4463V7.17Z" fill="#575757"/>
</svg>
