<svg width="84" height="86" viewBox="0 0 84 86" fill="none" xmlns="http://www.w3.org/2000/svg">
<g filter="url(#filter0_d_1726_6147)">
<circle cx="43" cy="43" r="31" fill="white"/>
</g>
<g clip-path="url(#clip0_1726_6147)">
<path fill-rule="evenodd" clip-rule="evenodd" d="M44.393 31.3929C44.393 30.6236 43.7694 30 43.0001 30C42.2309 30 41.6073 30.6236 41.6073 31.3929V32.3601C41.6073 33.1294 42.2309 33.753 43.0001 33.753C43.7694 33.753 44.393 33.1294 44.393 32.3601V31.3929ZM35.7775 33.8076C35.2336 33.2636 34.3517 33.2636 33.8077 33.8076C33.2638 34.3515 33.2638 35.2334 33.8077 35.7774L34.4917 36.4613C35.0356 37.0053 35.9175 37.0053 36.4615 36.4613C37.0054 35.9174 37.0054 35.0355 36.4615 34.4915L35.7775 33.8076ZM56.0002 43C56.0002 43.7692 55.3766 44.3929 54.6073 44.3929H53.6399C52.8707 44.3929 52.2471 43.7692 52.2471 43C52.2471 42.2308 52.8707 41.6071 53.6399 41.6071H54.6073C55.3766 41.6071 56.0002 42.2308 56.0002 43ZM32.3601 44.3929C33.1294 44.3929 33.753 43.7692 33.753 43C33.753 42.2308 33.1294 41.6071 32.3601 41.6071H31.3929C30.6236 41.6071 30 42.2308 30 43C30 43.7692 30.6236 44.3929 31.3929 44.3929H32.3601ZM52.1925 33.8076C52.7364 34.3515 52.7364 35.2334 52.1925 35.7774L51.5087 36.4613C50.9647 37.0053 50.0828 37.0053 49.5388 36.4613C48.9949 35.9174 48.9949 35.0355 49.5388 34.4915L50.2228 33.8076C50.7668 33.2636 51.6487 33.2636 52.1925 33.8076ZM42.8619 36.2402C44.1371 36.2155 45.3956 36.5327 46.5068 37.1587C47.618 37.7846 48.5413 38.6966 49.1811 39.8C49.8205 40.903 50.1533 42.1569 50.1448 43.4319C50.1389 44.7552 49.7643 46.0508 49.063 47.173C48.8517 47.5109 48.6544 47.8064 48.4799 48.0677L48.4776 48.0712C47.8461 49.0166 47.5366 49.4976 47.4414 50.4089C47.392 50.8819 46.9934 51.2411 46.5179 51.2411H39.4835C39.0062 51.2411 38.6066 50.8791 38.5595 50.4042C38.4659 49.4608 38.1547 48.9819 37.4693 47.9676L37.4679 47.9655L37.4679 47.9655L37.4678 47.9653C37.3298 47.7611 37.1775 47.5357 37.0151 47.2867C36.3184 46.2184 35.9204 44.9831 35.8624 43.7091C35.8043 42.435 36.0883 41.1686 36.685 40.0414C37.2816 38.9141 38.1691 37.9672 39.2553 37.2987C40.3415 36.6303 41.5868 36.2648 42.8619 36.2402ZM45.1475 56C45.9167 56 46.5403 55.3764 46.5403 54.6071C46.5403 53.8379 45.9167 53.2143 45.1475 53.2143H40.8529C40.0837 53.2143 39.46 53.8379 39.46 54.6071C39.46 55.3764 40.0837 56 40.8529 56H45.1475Z" fill="#0A81CE"/>
</g>
<defs>
<filter id="filter0_d_1726_6147" x="0" y="0" width="86" height="86" filterUnits="userSpaceOnUse" color-interpolation-filters="sRGB">
<feFlood flood-opacity="0" result="BackgroundImageFix"/>
<feColorMatrix in="SourceAlpha" type="matrix" values="0 0 0 0 0 0 0 0 0 0 0 0 0 0 0 0 0 0 127 0" result="hardAlpha"/>
<feOffset/>
<feGaussianBlur stdDeviation="6"/>
<feComposite in2="hardAlpha" operator="out"/>
<feColorMatrix type="matrix" values="0 0 0 0 0.370833 0 0 0 0 0.370833 0 0 0 0 0.370833 0 0 0 0.25 0"/>
<feBlend mode="normal" in2="BackgroundImageFix" result="effect1_dropShadow_1726_6147"/>
<feBlend mode="normal" in="SourceGraphic" in2="effect1_dropShadow_1726_6147" result="shape"/>
</filter>
<clipPath id="clip0_1726_6147">
<rect width="26" height="26" fill="white" transform="translate(30 30)"/>
</clipPath>
</defs>
</svg>
