<svg width="68" height="18" viewBox="0 0 68 18" fill="none" xmlns="http://www.w3.org/2000/svg">
<path d="M0.864 10.068C1.824 9.648 2.646 9.276 3.33 8.952C4.014 8.616 4.584 8.31 5.04 8.034C5.508 7.746 5.874 7.476 6.138 7.224C6.414 6.96 6.624 6.69 6.768 6.414C6.912 6.138 7.002 5.844 7.038 5.532C7.086 5.208 7.11 4.848 7.11 4.452V3.192H1.422V2.076H8.352V4.524C8.352 4.896 8.334 5.232 8.298 5.532H12.564V0.995999H13.824V12.768H12.564V6.648H8.046C7.89 7.032 7.662 7.392 7.362 7.728C7.062 8.052 6.648 8.388 6.12 8.736C5.604 9.084 4.956 9.45 4.176 9.834C3.408 10.218 2.478 10.644 1.386 11.112L0.864 10.068ZM5.022 16.134H14.238V17.25H3.744V11.886H5.022V16.134ZM23.7483 11.04C24.4203 11.04 25.0503 11.112 25.6383 11.256C26.2383 11.4 26.7603 11.604 27.2043 11.868C27.6483 12.132 27.9963 12.456 28.2483 12.84C28.5123 13.224 28.6443 13.65 28.6443 14.118V14.802C28.6443 15.27 28.5123 15.696 28.2483 16.08C27.9963 16.464 27.6483 16.788 27.2043 17.052C26.7603 17.316 26.2383 17.52 25.6383 17.664C25.0503 17.808 24.4203 17.88 23.7483 17.88C23.0763 17.88 22.4403 17.808 21.8403 17.664C21.2523 17.52 20.7363 17.316 20.2923 17.052C19.8483 16.788 19.4943 16.464 19.2303 16.08C18.9783 15.696 18.8523 15.27 18.8523 14.802V14.118C18.8523 13.638 18.9783 13.206 19.2303 12.822C19.4943 12.438 19.8483 12.114 20.2923 11.85C20.7363 11.586 21.2523 11.388 21.8403 11.256C22.4403 11.112 23.0763 11.04 23.7483 11.04ZM23.7483 16.8C24.2283 16.8 24.6903 16.752 25.1343 16.656C25.5783 16.56 25.9683 16.422 26.3043 16.242C26.6403 16.074 26.9103 15.864 27.1143 15.612C27.3183 15.36 27.4203 15.072 27.4203 14.748V14.172C27.4203 13.848 27.3183 13.56 27.1143 13.308C26.9103 13.056 26.6403 12.846 26.3043 12.678C25.9683 12.498 25.5783 12.36 25.1343 12.264C24.6903 12.168 24.2283 12.12 23.7483 12.12C23.2683 12.12 22.8063 12.168 22.3623 12.264C21.9183 12.36 21.5283 12.498 21.1923 12.678C20.8563 12.846 20.5863 13.056 20.3823 13.308C20.1783 13.56 20.0763 13.848 20.0763 14.172V14.748C20.0763 15.072 20.1783 15.36 20.3823 15.612C20.5863 15.864 20.8563 16.074 21.1923 16.242C21.5283 16.422 21.9183 16.56 22.3623 16.656C22.8063 16.752 23.2683 16.8 23.7483 16.8ZM16.1163 9.618C17.0643 9.222 17.8743 8.868 18.5463 8.556C19.2303 8.232 19.8003 7.932 20.2563 7.656C20.7243 7.38 21.0903 7.116 21.3543 6.864C21.6303 6.6 21.8403 6.33 21.9843 6.054C22.1283 5.778 22.2183 5.484 22.2543 5.172C22.3023 4.848 22.3263 4.482 22.3263 4.074V3.156H16.6743V2.04H23.5683V4.182C23.5683 4.938 23.4903 5.58 23.3343 6.108C23.1783 6.636 22.8543 7.128 22.3623 7.584C21.8703 8.04 21.1683 8.502 20.2563 8.97C19.3443 9.438 18.1383 9.996 16.6383 10.644L16.1163 9.618ZM28.5543 4.92H31.0743V6.036H28.5543V10.68H27.2943V0.995999H28.5543V4.92ZM37.7947 1.338L32.3587 17.25H31.1527L36.5707 1.338H37.7947ZM51.0368 1.626V8.682H40.3808V1.626H41.6228V4.092H49.7948V1.626H51.0368ZM53.2688 10.842V11.94H49.2368V17.43H47.9588V11.94H43.4588V17.43H42.1808V11.94H38.1488V10.842H53.2688ZM49.7948 7.62V5.19H41.6228V7.62H49.7948ZM62.6711 2.328V3.462H56.1371V7.134H62.3111V8.268H56.1371V12.084H58.7291C59.5691 12.084 60.4451 12.06 61.3571 12.012C62.2691 11.952 63.2111 11.85 64.1831 11.706L64.3271 12.84C63.3551 12.996 62.3651 13.104 61.3571 13.164C60.3491 13.212 59.3651 13.236 58.4051 13.236H54.8591V2.328H62.6711ZM67.2251 17.448H65.9471V0.995999H67.2251V17.448Z" fill="#575757"/>
</svg>
