<svg width="69" height="18" viewBox="0 0 69 18" fill="none" xmlns="http://www.w3.org/2000/svg">
<path d="M12.222 12.768V6.846H8.064C7.896 7.218 7.644 7.572 7.308 7.908C6.984 8.232 6.558 8.568 6.03 8.916C5.502 9.252 4.854 9.606 4.086 9.978C3.33 10.35 2.43 10.758 1.386 11.202L0.684 9.762C1.968 9.198 3 8.712 3.78 8.304C4.572 7.884 5.184 7.494 5.616 7.134C6.048 6.762 6.336 6.396 6.48 6.036C6.624 5.676 6.696 5.268 6.696 4.812V3.498H1.368V1.986H8.442V4.902C8.442 4.974 8.442 5.046 8.442 5.118C8.442 5.19 8.436 5.256 8.424 5.316H12.222V0.923999H13.986V12.768H12.222ZM5.4 15.792H14.328V17.34H3.618V11.886H5.4V15.792ZM18.7803 14.1C18.7803 13.668 18.8943 13.26 19.1223 12.876C19.3503 12.492 19.6803 12.156 20.1123 11.868C20.5443 11.58 21.0663 11.352 21.6783 11.184C22.3023 11.016 23.0043 10.932 23.7843 10.932C24.5643 10.932 25.2603 11.016 25.8723 11.184C26.4963 11.352 27.0243 11.58 27.4563 11.868C27.8883 12.156 28.2183 12.492 28.4463 12.876C28.6743 13.26 28.7883 13.668 28.7883 14.1V14.82C28.7883 15.252 28.6743 15.66 28.4463 16.044C28.2183 16.428 27.8883 16.764 27.4563 17.052C27.0243 17.34 26.4963 17.568 25.8723 17.736C25.2603 17.904 24.5643 17.988 23.7843 17.988C23.0043 17.988 22.3023 17.904 21.6783 17.736C21.0663 17.568 20.5443 17.34 20.1123 17.052C19.6803 16.764 19.3503 16.428 19.1223 16.044C18.8943 15.66 18.7803 15.252 18.7803 14.82V14.1ZM21.9123 3.462H16.6203V1.95H23.6583V4.56C23.6583 5.256 23.5563 5.856 23.3523 6.36C23.1483 6.864 22.7823 7.344 22.2543 7.8C21.7263 8.244 21.0063 8.7 20.0943 9.168C19.1823 9.624 18.0183 10.152 16.6023 10.752L15.9363 9.312C17.2083 8.784 18.2343 8.322 19.0143 7.926C19.7943 7.518 20.4003 7.134 20.8323 6.774C21.2643 6.414 21.5523 6.054 21.6963 5.694C21.8403 5.322 21.9123 4.902 21.9123 4.434V3.462ZM27.0423 14.208C27.0423 13.992 26.9643 13.776 26.8083 13.56C26.6643 13.332 26.4483 13.134 26.1603 12.966C25.8843 12.798 25.5423 12.66 25.1343 12.552C24.7383 12.444 24.2883 12.39 23.7843 12.39C23.2803 12.39 22.8243 12.444 22.4163 12.552C22.0203 12.66 21.6783 12.798 21.3903 12.966C21.1143 13.134 20.8983 13.332 20.7423 13.56C20.5983 13.776 20.5263 13.992 20.5263 14.208V14.712C20.5263 14.928 20.5983 15.144 20.7423 15.36C20.8983 15.588 21.1143 15.786 21.3903 15.954C21.6783 16.122 22.0203 16.26 22.4163 16.368C22.8243 16.476 23.2803 16.53 23.7843 16.53C24.2883 16.53 24.7383 16.476 25.1343 16.368C25.5423 16.26 25.8843 16.122 26.1603 15.954C26.4483 15.786 26.6643 15.588 26.8083 15.36C26.9643 15.144 27.0423 14.928 27.0423 14.712V14.208ZM31.0743 6.252H28.7163V10.716H26.9523V0.923999H28.7163V4.704H31.0743V6.252ZM38.5147 1.176L33.0067 17.304H31.2967L36.7867 1.176H38.5147ZM52.0241 8.916H41.1161V1.572H42.8801V3.84H50.2601V1.554H52.0241V8.916ZM48.5681 17.484V12.246H44.5721V17.484H42.7901V12.246H38.9561V10.734H54.1841V12.246H50.3501V17.484H48.5681ZM42.8801 7.386H50.2601V5.352H42.8801V7.386ZM57.4124 3.786V6.936H63.1904V8.448H57.4124V11.814H59.2844C59.8844 11.814 60.4304 11.808 60.9224 11.796C61.4144 11.784 61.8764 11.766 62.3084 11.742C62.7524 11.706 63.1844 11.67 63.6044 11.634C64.0364 11.586 64.4864 11.526 64.9544 11.454L65.1524 12.966C64.7324 13.026 64.3064 13.08 63.8744 13.128C63.4544 13.176 62.9924 13.218 62.4884 13.254C61.9964 13.278 61.4504 13.302 60.8504 13.326C60.2624 13.338 59.5964 13.344 58.8524 13.344H55.6484V2.256H63.5504V3.786H57.4124ZM66.4124 17.52V0.923999H68.1944V17.52H66.4124Z" fill="#333333"/>
</svg>
