<svg width="13" height="12" viewBox="0 0 13 12" fill="none" xmlns="http://www.w3.org/2000/svg">
<path id="Vector" d="M6.21142 1.15494L6.50002 1.35893L6.78862 1.15494C7.37448 0.740821 8.07968 0.5 8.83778 0.5C10.8422 0.5 12.5 2.19507 12.5 4.32742C12.5 5.95708 11.5474 7.40413 10.3458 8.60438C9.14016 9.80866 7.65791 10.7903 6.548 11.4857C6.51755 11.5048 6.48246 11.5048 6.452 11.4857C5.34209 10.7903 3.85984 9.80866 2.65422 8.60438L2.32807 8.9309L2.65422 8.60438C1.45263 7.40413 0.5 5.95708 0.5 4.32742C0.5 2.19507 2.1578 0.5 4.16222 0.5C4.92032 0.5 5.62553 0.74082 6.21142 1.15494Z" stroke="#73B6FF"/>
</svg>
