<svg width="54" height="54" viewBox="0 0 54 54" fill="none" xmlns="http://www.w3.org/2000/svg">
<rect width="54" height="54" rx="8" fill="#D9D9D9"/>
<g clip-path="url(#clip0_1800_6090)">
<path fill-rule="evenodd" clip-rule="evenodd" d="M22.2828 15.9575C23.9465 15.7721 25.6991 15.6074 27.5003 15.6074C29.3015 15.6074 31.0541 15.7721 32.7177 15.9575C35.515 16.2693 37.7611 18.5125 38.0611 21.3167C38.2384 22.9723 38.3925 24.7121 38.3925 26.4997C38.3925 28.2872 38.2384 30.027 38.0611 31.6826C37.7611 34.4868 35.515 36.7299 32.7177 37.0417C31.0541 37.2272 29.3015 37.3918 27.5003 37.3918C25.6991 37.3918 23.9465 37.2272 22.2828 37.0417C19.4855 36.7299 17.2394 34.4868 16.9394 31.6826C16.7623 30.027 16.6081 28.2872 16.6081 26.4997C16.6081 24.7121 16.7623 22.9723 16.9394 21.3167C17.2394 18.5125 19.4855 16.2693 22.2828 15.9575ZM33.3282 21.9848C33.3282 23.2972 32.2643 24.361 30.9519 24.361C29.6396 24.361 28.5757 23.2972 28.5757 21.9848C28.5757 20.6725 29.6396 19.6086 30.9519 19.6086C32.2643 19.6086 33.3282 20.6725 33.3282 21.9848ZM23.1499 34.6532C21.2456 34.4122 19.7133 32.6719 19.5094 30.5084C19.4072 29.4233 19.3158 28.3186 19.2677 27.1975C19.2502 26.7915 19.5392 26.4346 19.9437 26.3947C20.2522 26.3644 20.5618 26.3496 20.8717 26.3505C23.1788 26.2913 25.4294 27.1648 27.2219 28.8153C28.6732 30.1516 29.7477 31.9267 30.3302 33.921C30.4669 34.3889 30.1311 34.8508 29.6453 34.8909C28.9368 34.9492 28.2205 34.986 27.4974 34.986C26.0167 34.986 24.5644 34.8323 23.1499 34.6532ZM32.5748 34.4828C32.351 34.5599 32.1249 34.4027 32.0801 34.1704C31.8503 32.9788 31.3735 31.5063 30.5076 30.2203C30.3451 29.9788 30.4544 29.6402 30.7385 29.5768C31.4072 29.4275 32.0889 29.3526 32.7739 29.3543C33.6045 29.3538 34.4311 29.4671 35.2356 29.6911C35.421 29.7427 35.5393 29.9213 35.5219 30.1129C35.5099 30.2451 35.4976 30.3769 35.4853 30.5085C35.3082 32.3874 34.1293 33.9471 32.5748 34.4828Z" fill="#868686"/>
</g>
<defs>
<clipPath id="clip0_1800_6090">
<rect width="23" height="23" fill="white" transform="translate(16 15)"/>
</clipPath>
</defs>
</svg>
