<svg width="30" height="18" viewBox="0 0 30 18" fill="none" xmlns="http://www.w3.org/2000/svg">
<path d="M12.752 17.448H11.474V0.995999H12.752V17.448ZM8.216 8.628C8.216 10.14 7.856 11.316 7.136 12.156C6.428 12.996 5.432 13.416 4.148 13.416C2.864 13.416 1.862 12.996 1.142 12.156C0.434 11.316 0.08 10.14 0.08 8.628V6.918C0.08 5.406 0.434 4.236 1.142 3.408C1.862 2.568 2.864 2.148 4.148 2.148C5.432 2.148 6.428 2.568 7.136 3.408C7.856 4.248 8.216 5.424 8.216 6.936V8.628ZM6.974 7.152C6.974 6.468 6.902 5.886 6.758 5.406C6.626 4.926 6.434 4.536 6.182 4.236C5.942 3.924 5.648 3.696 5.3 3.552C4.952 3.408 4.568 3.336 4.148 3.336C3.728 3.336 3.344 3.408 2.996 3.552C2.648 3.696 2.348 3.924 2.096 4.236C1.856 4.536 1.664 4.926 1.52 5.406C1.388 5.886 1.322 6.468 1.322 7.152V8.412C1.322 9.096 1.388 9.684 1.52 10.176C1.664 10.656 1.856 11.052 2.096 11.364C2.348 11.664 2.648 11.886 2.996 12.03C3.344 12.174 3.728 12.246 4.148 12.246C4.568 12.246 4.952 12.174 5.3 12.03C5.648 11.886 5.942 11.664 6.182 11.364C6.434 11.052 6.626 10.656 6.758 10.176C6.902 9.684 6.974 9.096 6.974 8.412V7.152ZM29.7863 10.392V11.49H25.7543V17.43H24.4763V11.49H19.9763V17.43H18.6983V11.49H14.6663V10.392H29.7863ZM24.3323 6.954C23.1203 6.354 22.4183 5.85 22.2263 5.442H22.2083C21.9803 5.874 21.2783 6.384 20.1023 6.972C19.6103 7.212 19.0283 7.488 18.3563 7.8C17.6963 8.1 17.0003 8.394 16.2683 8.682L15.7103 7.674C16.3823 7.422 17.0663 7.14 17.7623 6.828C18.4703 6.516 19.1123 6.21 19.6883 5.91C20.0363 5.73 20.3303 5.556 20.5703 5.388C20.8103 5.208 21.0023 5.01 21.1463 4.794C21.3023 4.578 21.4103 4.326 21.4703 4.038C21.5423 3.75 21.5783 3.408 21.5783 3.012V1.572H22.8563V3.012C22.8563 3.408 22.8863 3.75 22.9463 4.038C23.0183 4.326 23.1263 4.578 23.2703 4.794C23.4143 5.01 23.6063 5.208 23.8463 5.388C24.0863 5.556 24.3803 5.73 24.7283 5.91C25.3043 6.21 25.9343 6.516 26.6183 6.828C27.3143 7.128 27.9983 7.404 28.6703 7.656L28.1303 8.646C27.3983 8.358 26.7023 8.064 26.0423 7.764C25.3943 7.464 24.8243 7.194 24.3323 6.954Z" fill="#575757"/>
</svg>
