<svg width="31" height="18" viewBox="0 0 31 18" fill="none" xmlns="http://www.w3.org/2000/svg">
<path d="M12.096 17.52V0.923999H13.878V17.52H12.096ZM5.148 2.04C5.76 2.04 6.318 2.142 6.822 2.346C7.338 2.55 7.782 2.856 8.154 3.264C8.526 3.672 8.814 4.176 9.018 4.776C9.234 5.376 9.342 6.072 9.342 6.864V8.736C9.342 9.528 9.234 10.224 9.018 10.824C8.814 11.424 8.526 11.928 8.154 12.336C7.782 12.732 7.338 13.032 6.822 13.236C6.318 13.44 5.76 13.542 5.148 13.542C4.536 13.542 3.972 13.44 3.456 13.236C2.952 13.032 2.514 12.732 2.142 12.336C1.77 11.928 1.476 11.424 1.26 10.824C1.056 10.224 0.954 9.528 0.954 8.736V6.864C0.954 6.072 1.056 5.376 1.26 4.776C1.476 4.164 1.77 3.66 2.142 3.264C2.514 2.856 2.952 2.55 3.456 2.346C3.972 2.142 4.536 2.04 5.148 2.04ZM5.148 11.94C5.472 11.94 5.784 11.88 6.084 11.76C6.384 11.64 6.648 11.442 6.876 11.166C7.104 10.89 7.284 10.536 7.416 10.104C7.56 9.66 7.632 9.12 7.632 8.484V7.116C7.632 6.48 7.56 5.946 7.416 5.514C7.284 5.07 7.098 4.71 6.858 4.434C6.63 4.158 6.366 3.96 6.066 3.84C5.778 3.72 5.472 3.66 5.148 3.66C4.824 3.66 4.512 3.72 4.212 3.84C3.912 3.96 3.648 4.158 3.42 4.434C3.192 4.71 3.006 5.07 2.862 5.514C2.73 5.946 2.664 6.48 2.664 7.116V8.484C2.664 9.12 2.73 9.66 2.862 10.104C3.006 10.536 3.192 10.89 3.42 11.166C3.648 11.442 3.912 11.64 4.212 11.76C4.512 11.88 4.824 11.94 5.148 11.94ZM25.2243 17.484V11.814H21.2283V17.484H19.4463V11.814H15.6123V10.302H30.8403V11.814H27.0063V17.484H25.2243ZM25.2243 7.152C24.6243 6.852 24.1683 6.588 23.8563 6.36C23.5563 6.132 23.3463 5.916 23.2263 5.712H23.2083C23.1003 5.916 22.8903 6.138 22.5783 6.378C22.2663 6.606 21.8103 6.87 21.2103 7.17C20.7183 7.41 20.1423 7.68 19.4823 7.98C18.8223 8.28 18.1203 8.574 17.3763 8.862L16.6743 7.404C17.3463 7.152 18.0303 6.876 18.7263 6.576C19.4223 6.264 20.0583 5.952 20.6343 5.64C20.9343 5.472 21.1923 5.304 21.4083 5.136C21.6243 4.968 21.7983 4.782 21.9303 4.578C22.0743 4.362 22.1763 4.128 22.2363 3.876C22.2963 3.612 22.3263 3.312 22.3263 2.976V1.5H24.1083V2.976C24.1083 3.312 24.1383 3.612 24.1983 3.876C24.2583 4.128 24.3543 4.362 24.4863 4.578C24.6183 4.782 24.7863 4.968 24.9903 5.136C25.2063 5.304 25.4703 5.472 25.7823 5.64C26.3583 5.952 26.9943 6.264 27.6903 6.576C28.3863 6.876 29.0703 7.152 29.7423 7.404L29.0583 8.844C28.3143 8.556 27.6123 8.262 26.9523 7.962C26.2923 7.662 25.7163 7.392 25.2243 7.152Z" fill="#333333"/>
</svg>
