<svg width="92" height="18" viewBox="0 0 92 18" fill="none" xmlns="http://www.w3.org/2000/svg">
<path d="M2.808 8.448V11.94H4.32C4.92 11.94 5.466 11.934 5.958 11.922C6.45 11.91 6.912 11.892 7.344 11.868C7.788 11.832 8.22 11.796 8.64 11.76C9.072 11.712 9.522 11.652 9.99 11.58L10.188 13.092C9.768 13.152 9.342 13.206 8.91 13.254C8.49 13.302 8.028 13.344 7.524 13.38C7.032 13.404 6.486 13.428 5.886 13.452C5.298 13.464 4.632 13.47 3.888 13.47H1.044V6.954H6.696V3.786H0.99V2.256H8.46V8.448H2.808ZM15.714 8.538H13.158V17.52H11.376V0.923999H13.158V6.99H15.714V8.538ZM27.5823 17.52V0.923999H29.3643V17.52H27.5823ZM20.6343 2.04C21.2463 2.04 21.8043 2.142 22.3083 2.346C22.8243 2.55 23.2683 2.856 23.6403 3.264C24.0123 3.672 24.3003 4.176 24.5043 4.776C24.7203 5.376 24.8283 6.072 24.8283 6.864V8.736C24.8283 9.528 24.7203 10.224 24.5043 10.824C24.3003 11.424 24.0123 11.928 23.6403 12.336C23.2683 12.732 22.8243 13.032 22.3083 13.236C21.8043 13.44 21.2463 13.542 20.6343 13.542C20.0223 13.542 19.4583 13.44 18.9423 13.236C18.4383 13.032 18.0003 12.732 17.6283 12.336C17.2563 11.928 16.9623 11.424 16.7463 10.824C16.5423 10.224 16.4403 9.528 16.4403 8.736V6.864C16.4403 6.072 16.5423 5.376 16.7463 4.776C16.9623 4.164 17.2563 3.66 17.6283 3.264C18.0003 2.856 18.4383 2.55 18.9423 2.346C19.4583 2.142 20.0223 2.04 20.6343 2.04ZM20.6343 11.94C20.9583 11.94 21.2703 11.88 21.5703 11.76C21.8703 11.64 22.1343 11.442 22.3623 11.166C22.5903 10.89 22.7703 10.536 22.9023 10.104C23.0463 9.66 23.1183 9.12 23.1183 8.484V7.116C23.1183 6.48 23.0463 5.946 22.9023 5.514C22.7703 5.07 22.5843 4.71 22.3443 4.434C22.1163 4.158 21.8523 3.96 21.5523 3.84C21.2643 3.72 20.9583 3.66 20.6343 3.66C20.3103 3.66 19.9983 3.72 19.6983 3.84C19.3983 3.96 19.1343 4.158 18.9063 4.434C18.6783 4.71 18.4923 5.07 18.3483 5.514C18.2163 5.946 18.1503 6.48 18.1503 7.116V8.484C18.1503 9.12 18.2163 9.66 18.3483 10.104C18.4923 10.536 18.6783 10.89 18.9063 11.166C19.1343 11.442 19.3983 11.64 19.6983 11.76C19.9983 11.88 20.3103 11.94 20.6343 11.94ZM44.7427 9.204V10.68H32.6827V9.204H35.0047V3.822H32.8087V2.346H44.5987V3.822H42.4387V9.204H44.7427ZM46.3267 13.794V15.306H31.0987V13.794H46.3267ZM36.7867 9.204H40.6567V3.822H36.7867V9.204ZM61.813 13.794V15.306H46.585V13.794H61.813ZM54.199 7.206C54.103 7.41 53.875 7.668 53.515 7.98C53.167 8.292 52.687 8.64 52.075 9.024C51.547 9.36 50.989 9.708 50.401 10.068C49.813 10.416 49.141 10.8 48.385 11.22L47.503 9.816C48.223 9.42 48.883 9.048 49.483 8.7C50.083 8.352 50.683 7.974 51.283 7.566C51.691 7.29 52.027 7.026 52.291 6.774C52.555 6.522 52.759 6.258 52.903 5.982C53.059 5.706 53.161 5.406 53.209 5.082C53.269 4.746 53.299 4.356 53.299 3.912V2.094H55.099V3.912C55.099 4.356 55.123 4.746 55.171 5.082C55.219 5.406 55.321 5.712 55.477 6C55.633 6.276 55.855 6.546 56.143 6.81C56.431 7.074 56.821 7.368 57.313 7.692C57.877 8.064 58.441 8.412 59.005 8.736C59.569 9.06 60.205 9.414 60.913 9.798L60.049 11.184C59.377 10.8 58.723 10.428 58.087 10.068C57.451 9.696 56.863 9.336 56.323 8.988C55.735 8.616 55.261 8.28 54.901 7.98C54.541 7.668 54.313 7.41 54.217 7.206H54.199ZM64.7533 3.786V6.936H70.2253V8.448H64.7533V11.814H66.3193C66.9193 11.814 67.4653 11.808 67.9573 11.796C68.4493 11.784 68.9113 11.766 69.3433 11.742C69.7873 11.706 70.2193 11.67 70.6393 11.634C71.0713 11.586 71.5213 11.526 71.9893 11.454L72.1873 12.966C71.7673 13.026 71.3413 13.08 70.9093 13.128C70.4893 13.176 70.0273 13.218 69.5233 13.254C69.0313 13.278 68.4853 13.302 67.8853 13.326C67.2973 13.338 66.6313 13.344 65.8873 13.344H62.9893V2.256H70.5853V3.786H64.7533ZM77.6413 8.538H75.0853V17.52H73.3033V0.923999H75.0853V6.99H77.6413V8.538ZM81.0316 17.628V13.092H89.5636V11.49H80.9416V10.014H91.3096V14.532H82.7776V16.152H91.7776V17.628H81.0316ZM89.5456 9.186V0.923999H91.3096V9.186H89.5456ZM82.2736 1.158C82.9456 1.158 83.5396 1.26 84.0556 1.464C84.5716 1.668 85.0036 1.932 85.3516 2.256C85.6996 2.58 85.9576 2.946 86.1256 3.354C86.3056 3.762 86.3956 4.17 86.3956 4.578V5.298C86.3956 5.718 86.3056 6.132 86.1256 6.54C85.9576 6.948 85.6996 7.314 85.3516 7.638C85.0036 7.962 84.5716 8.226 84.0556 8.43C83.5396 8.622 82.9456 8.718 82.2736 8.718C81.6016 8.718 81.0076 8.622 80.4916 8.43C79.9756 8.226 79.5436 7.962 79.1956 7.638C78.8476 7.314 78.5836 6.948 78.4036 6.54C78.2356 6.132 78.1516 5.718 78.1516 5.298V4.578C78.1516 4.17 78.2356 3.762 78.4036 3.354C78.5836 2.946 78.8476 2.58 79.1956 2.256C79.5436 1.932 79.9756 1.668 80.4916 1.464C81.0076 1.26 81.6016 1.158 82.2736 1.158ZM82.2736 7.188C82.6576 7.188 82.9996 7.134 83.2996 7.026C83.5996 6.906 83.8516 6.756 84.0556 6.576C84.2596 6.384 84.4156 6.168 84.5236 5.928C84.6316 5.688 84.6856 5.442 84.6856 5.19V4.686C84.6856 4.434 84.6316 4.188 84.5236 3.948C84.4156 3.708 84.2596 3.498 84.0556 3.318C83.8516 3.138 83.5996 2.994 83.2996 2.886C82.9996 2.766 82.6576 2.706 82.2736 2.706C81.8896 2.706 81.5476 2.76 81.2476 2.868C80.9476 2.976 80.6956 3.126 80.4916 3.318C80.2876 3.498 80.1316 3.708 80.0236 3.948C79.9156 4.188 79.8616 4.434 79.8616 4.686V5.19C79.8616 5.442 79.9156 5.688 80.0236 5.928C80.1316 6.168 80.2876 6.384 80.4916 6.576C80.6956 6.756 80.9476 6.906 81.2476 7.026C81.5476 7.134 81.8896 7.188 82.2736 7.188Z" fill="#333333"/>
</svg>
