<svg width="91" height="18" viewBox="0 0 91 18" fill="none" xmlns="http://www.w3.org/2000/svg">
<path d="M1.358 12.228H3.68C4.592 12.228 5.516 12.204 6.452 12.156C7.4 12.096 8.294 12 9.134 11.868L9.278 12.966C8.318 13.122 7.334 13.23 6.326 13.29C5.33 13.338 4.34 13.362 3.356 13.362H0.0980001V7.062H6.074V3.444H0.0980001V2.328H7.334V8.178H1.358V12.228ZM11.978 7.152H14.714V8.286H11.978V17.448H10.7V0.995999H11.978V7.152ZM28.2383 17.448H26.9603V0.995999H28.2383V17.448ZM23.7023 8.628C23.7023 10.14 23.3423 11.316 22.6223 12.156C21.9143 12.996 20.9183 13.416 19.6343 13.416C18.3503 13.416 17.3483 12.996 16.6283 12.156C15.9203 11.316 15.5663 10.14 15.5663 8.628V6.918C15.5663 5.406 15.9203 4.236 16.6283 3.408C17.3483 2.568 18.3503 2.148 19.6343 2.148C20.9183 2.148 21.9143 2.568 22.6223 3.408C23.3423 4.248 23.7023 5.424 23.7023 6.936V8.628ZM22.4603 7.152C22.4603 6.468 22.3883 5.886 22.2443 5.406C22.1123 4.926 21.9203 4.536 21.6683 4.236C21.4283 3.924 21.1343 3.696 20.7863 3.552C20.4383 3.408 20.0543 3.336 19.6343 3.336C19.2143 3.336 18.8303 3.408 18.4823 3.552C18.1343 3.696 17.8343 3.924 17.5823 4.236C17.3423 4.536 17.1503 4.926 17.0063 5.406C16.8743 5.886 16.8083 6.468 16.8083 7.152V8.412C16.8083 9.096 16.8743 9.684 17.0063 10.176C17.1503 10.656 17.3423 11.052 17.5823 11.364C17.8343 11.664 18.1343 11.886 18.4823 12.03C18.8303 12.174 19.2143 12.246 19.6343 12.246C20.0543 12.246 20.4383 12.174 20.7863 12.03C21.1343 11.886 21.4283 11.664 21.6683 11.364C21.9203 11.052 22.1123 10.656 22.2443 10.176C22.3883 9.684 22.4603 9.096 22.4603 8.412V7.152ZM43.5447 2.508V3.57H41.1507V9.438H43.7067V10.5H31.7187V9.438H34.2747V3.57H31.8807V2.508H43.5447ZM35.5347 9.438H39.8907V3.57H35.5347V9.438ZM45.2727 14.028V15.126H30.1527V14.028H45.2727ZM53.181 6.936C53.109 7.116 52.899 7.362 52.551 7.674C52.215 7.974 51.723 8.34 51.075 8.772C50.535 9.132 49.917 9.522 49.221 9.942C48.537 10.35 47.871 10.728 47.223 11.076L46.539 10.068C47.331 9.66 48.057 9.264 48.717 8.88C49.377 8.484 49.917 8.142 50.337 7.854C50.781 7.554 51.147 7.284 51.435 7.044C51.723 6.804 51.945 6.552 52.101 6.288C52.269 6.012 52.383 5.712 52.443 5.388C52.503 5.052 52.533 4.638 52.533 4.146V2.166H53.847V4.146C53.847 4.638 53.877 5.052 53.937 5.388C53.997 5.712 54.105 6.012 54.261 6.288C54.429 6.552 54.651 6.804 54.927 7.044C55.215 7.284 55.581 7.554 56.025 7.854C56.445 8.142 56.979 8.478 57.627 8.862C58.287 9.246 59.007 9.642 59.787 10.05L59.121 11.04C58.473 10.692 57.807 10.314 57.123 9.906C56.451 9.498 55.845 9.114 55.305 8.754C54.657 8.322 54.165 7.956 53.829 7.656C53.493 7.356 53.283 7.116 53.199 6.936H53.181ZM60.759 14.028V15.126H45.639V14.028H60.759ZM69.5673 2.328V3.462H63.3393V7.134H69.2073V8.268H63.3393V12.084H65.6433C66.4833 12.084 67.3593 12.06 68.2713 12.012C69.1833 11.952 70.1253 11.85 71.0973 11.706L71.2413 12.84C70.2693 12.996 69.2793 13.104 68.2713 13.164C67.2633 13.212 66.2793 13.236 65.3193 13.236H62.0613V2.328H69.5673ZM73.9053 7.17H76.6413V8.304H73.9053V17.448H72.6273V0.995999H73.9053V7.17ZM90.2016 10.068V14.316H81.3816V16.422H90.6336V17.502H80.1396V13.254H88.9596V11.166H80.0496V10.068H90.2016ZM90.2016 9.096H88.9416V0.995999H90.2016V9.096ZM81.3996 8.682C80.8116 8.682 80.2716 8.592 79.7796 8.412C79.2876 8.232 78.8616 7.992 78.5016 7.692C78.1536 7.392 77.8776 7.044 77.6736 6.648C77.4816 6.252 77.3856 5.838 77.3856 5.406V4.614C77.3856 4.182 77.4816 3.768 77.6736 3.372C77.8776 2.976 78.1536 2.628 78.5016 2.328C78.8616 2.028 79.2876 1.788 79.7796 1.608C80.2716 1.428 80.8116 1.338 81.3996 1.338C81.9876 1.338 82.5276 1.428 83.0196 1.608C83.5116 1.788 83.9316 2.028 84.2796 2.328C84.6396 2.628 84.9156 2.976 85.1076 3.372C85.3116 3.768 85.4136 4.182 85.4136 4.614V5.406C85.4136 5.838 85.3116 6.252 85.1076 6.648C84.9156 7.044 84.6396 7.392 84.2796 7.692C83.9316 7.992 83.5116 8.232 83.0196 8.412C82.5276 8.592 81.9876 8.682 81.3996 8.682ZM81.3996 2.472C80.9916 2.472 80.6136 2.532 80.2656 2.652C79.9296 2.772 79.6356 2.934 79.3836 3.138C79.1436 3.342 78.9516 3.582 78.8076 3.858C78.6756 4.134 78.6096 4.422 78.6096 4.722V5.298C78.6096 5.61 78.6756 5.904 78.8076 6.18C78.9516 6.444 79.1436 6.678 79.3836 6.882C79.6356 7.086 79.9296 7.248 80.2656 7.368C80.6136 7.488 80.9916 7.548 81.3996 7.548C81.8076 7.548 82.1796 7.488 82.5156 7.368C82.8636 7.248 83.1576 7.086 83.3976 6.882C83.6496 6.678 83.8416 6.444 83.9736 6.18C84.1176 5.904 84.1896 5.61 84.1896 5.298V4.722C84.1896 4.422 84.1176 4.134 83.9736 3.858C83.8416 3.582 83.6496 3.342 83.3976 3.138C83.1576 2.934 82.8636 2.772 82.5156 2.652C82.1796 2.532 81.8076 2.472 81.3996 2.472Z" fill="#575757"/>
</svg>
