<svg width="25" height="25" viewBox="0 0 25 25" fill="none" xmlns="http://www.w3.org/2000/svg">
<g id="streamlinehq-interface-content-fire-&#10;          solid-14-ico_ACe2PKUgIlzHjj0n">
<path id="Vector" fill-rule="evenodd" clip-rule="evenodd" d="M10.6981 0.454956C10.4163 0.454956 10.1398 0.531272 9.89779 0.675801C9.86417 0.69589 9.8319 0.718168 9.80118 0.742495C9.54452 0.945854 9.37134 1.23627 9.31443 1.55875C9.25845 1.87599 9.31883 2.20261 9.48415 2.4787C10.9205 4.97036 11.4852 8.04051 10.7316 10.4134C10.5737 10.9108 10.2072 11.1395 9.8127 11.1639C9.40152 11.1893 8.93099 10.9888 8.64018 10.4968C8.46813 10.2058 8.31302 9.90399 8.17597 9.59299C8.07474 9.36326 7.88147 9.18676 7.6435 9.10674C7.40554 9.02674 7.1449 9.0506 6.92542 9.17249C5.71895 9.84256 4.71908 10.8303 4.03438 12.0286C3.34968 13.2268 3.00631 14.5897 3.04152 15.9693H3.04143L3.04197 15.9826C3.13956 18.3927 3.9702 20.5548 5.59717 22.1145C7.22625 23.6761 9.561 24.5452 12.4962 24.5452C15.4444 24.5452 17.7754 23.625 19.3974 22.0443C21.0144 20.4686 21.8478 18.3136 21.9503 15.9858V15.9852C22.1903 10.4486 18.3049 3.83329 11.4496 0.647763C11.2196 0.521419 10.9612 0.454956 10.6981 0.454956Z" fill="#ADCEF4"/>
</g>
</svg>
