<svg width="13" height="13" viewBox="0 0 13 13" fill="none" xmlns="http://www.w3.org/2000/svg">
<g id="streamlinehq-interface-lock-&#10;          solid-14-ico_4OGzvWWktM1Msm2A">
<path id="Vector" fill-rule="evenodd" clip-rule="evenodd" d="M6.49966 0.116058C5.59666 0.116058 4.73065 0.474773 4.09213 1.11329C3.45361 1.7518 3.0949 2.61782 3.0949 3.52082V4.56472C2.12723 5.02911 1.41783 5.96756 1.29125 7.08432C1.23741 7.55928 1.19922 8.04959 1.19922 8.5506C1.19922 9.05162 1.23741 9.54189 1.29125 10.0169C1.46825 11.5784 2.78483 12.7914 4.35359 12.8471C5.03899 12.8714 5.74238 12.8839 6.49981 12.8839C7.25724 12.8839 7.96063 12.8714 8.64604 12.8471C10.2148 12.7914 11.5314 11.5784 11.7084 10.0169C11.7622 9.54189 11.8004 9.05162 11.8004 8.5506C11.8004 8.04959 11.7622 7.55928 11.7084 7.08432C11.5817 5.96744 10.8722 5.02892 9.90446 4.56458V3.52082C9.90446 2.61782 9.54575 1.7518 8.90719 1.11329C8.26867 0.474773 7.40266 0.116058 6.49966 0.116058ZM8.51156 4.24953V3.52082C8.51156 2.98723 8.2996 2.47549 7.92229 2.09819C7.54498 1.72088 7.03325 1.50892 6.49966 1.50892C5.96607 1.50892 5.45433 1.72088 5.07703 2.09819C4.69972 2.47549 4.48775 2.98723 4.48775 3.52082V4.24954C5.13085 4.22824 5.79172 4.21727 6.49981 4.21727C7.20779 4.21727 7.86857 4.22824 8.51156 4.24953ZM6.49974 7.31254C6.88436 7.31254 7.19617 7.62435 7.19617 8.00897V8.93749C7.19617 9.3221 6.88436 9.63391 6.49974 9.63391C6.1151 9.63391 5.80331 9.3221 5.80331 8.93749V8.00897C5.80331 7.62435 6.1151 7.31254 6.49974 7.31254Z" fill="#0A81CE"/>
</g>
</svg>
