<svg width="22" height="22" viewBox="0 0 22 22" fill="none" xmlns="http://www.w3.org/2000/svg">
<path id="Vector" fill-rule="evenodd" clip-rule="evenodd" d="M5.10963 3.23235e-07C4.26513 3.23235e-07 3.4476 0.0888006 2.69314 0.177147C1.57689 0.307853 0.684667 1.21411 0.560477 2.35472C0.477089 3.12059 0.39535 3.94668 0.39535 4.79993C0.39535 5.65318 0.477089 6.47927 0.560477 7.24514C0.684667 8.38575 1.57691 9.29201 2.69314 9.42271C3.4476 9.51106 4.26513 9.59986 5.10963 9.59986C5.95411 9.59986 6.77166 9.51106 7.52612 9.42271C8.64235 9.29201 9.53459 8.38575 9.65878 7.24514C9.74216 6.47927 9.8239 5.65318 9.8239 4.79993C9.8239 3.94668 9.74216 3.12059 9.65878 2.35472C9.53459 1.21411 8.64235 0.307853 7.52612 0.177147C6.77166 0.0888006 5.95411 3.23235e-07 5.10963 3.23235e-07ZM17.4554 0.286617C17.3078 0.106981 17.0902 0.00224188 16.8603 3.55133e-05C16.6302 -0.00216925 16.4107 0.0983797 16.2598 0.275152C14.3581 2.50267 12.9702 4.13221 11.8893 6.36636C11.1175 7.96155 12.3794 9.59986 13.9587 9.59986H19.6944C21.2977 9.59986 22.5543 7.92028 21.7499 6.32282C20.6913 4.22079 19.3989 2.64959 17.7004 0.584534V0.584523V0.584505L17.4554 0.286617ZM11.9173 12.7975C11.9173 12.2452 12.357 11.7975 12.8994 11.7975H20.7565C21.2989 11.7975 21.7386 12.2452 21.7386 12.7975C21.7386 13.3497 21.2989 13.7975 20.7565 13.7975H12.8994C12.357 13.7975 11.9173 13.3497 11.9173 12.7975ZM11.9173 20.7973C11.9173 20.2451 12.357 19.7973 12.8994 19.7973H20.7565C21.2989 19.7973 21.7386 20.2451 21.7386 20.7973C21.7386 21.3496 21.2989 21.7973 20.7565 21.7973H12.8994C12.357 21.7973 11.9173 21.3496 11.9173 20.7973ZM12.8994 15.7974C12.357 15.7974 11.9173 16.2452 11.9173 16.7974C11.9173 17.3497 12.357 17.7973 12.8994 17.7973H20.7565C21.2989 17.7973 21.7386 17.3497 21.7386 16.7974C21.7386 16.2452 21.2989 15.7974 20.7565 15.7974H12.8994ZM5.10958 11.5951C2.28763 11.5951 0 13.9243 0 16.7975C0 19.6708 2.28763 22 5.10958 22C7.93153 22 10.2192 19.6708 10.2192 16.7975C10.2192 13.9243 7.93153 11.5951 5.10958 11.5951Z" fill="#ADCEF4"/>
</svg>
