<svg width="25" height="25" viewBox="0 0 25 25" fill="none" xmlns="http://www.w3.org/2000/svg">
<g id="streamlinehq-interface-home-2-&#10;          solid-14-ico_MLvmd1xkf6b6Ndxk" clip-path="url(#clip0_45_332)">
<path id="Vector" fill-rule="evenodd" clip-rule="evenodd" d="M11.5365 16.1987H13.4627C14.1294 16.5465 14.5846 17.2443 14.5846 18.0484V22.5841C14.5846 23.0771 14.9844 23.477 15.4775 23.477H18.1486C19.7848 23.477 21.1763 22.2834 21.4254 20.6663C21.6532 19.1866 21.748 17.6915 21.7096 16.1987H23.6607C24.1845 16.1987 24.6602 15.8934 24.8782 15.4173C25.0964 14.9412 25.0171 14.3816 24.6752 13.9849L14.8669 2.60739C13.6203 1.1613 11.3797 1.16131 10.1331 2.60739L0.324918 13.9849C-0.0170387 14.3816 -0.096409 14.9412 0.121756 15.4173C0.33992 15.8934 0.815588 16.1987 1.33931 16.1987H3.29023C3.25189 17.6915 3.34671 19.1866 3.57457 20.6663C3.82359 22.2834 5.21507 23.477 6.85121 23.477H9.52172C10.0148 23.477 10.4146 23.0771 10.4146 22.5841V18.0484C10.4146 17.2443 10.8698 16.5465 11.5365 16.1987Z" fill="#ADCEF4"/>
</g>
<defs>
<clipPath id="clip0_45_332">
<rect width="25" height="25" fill="white"/>
</clipPath>
</defs>
</svg>
