<svg width="25" height="25" viewBox="0 0 25 25" fill="none" xmlns="http://www.w3.org/2000/svg">
<g id="streamlinehq-money-cashier-tag-&#10;          solid-14-ico_Kt4Cu0FYFV4kyHR5" clip-path="url(#clip0_809_2245)">
<path id="Vector" fill-rule="evenodd" clip-rule="evenodd" d="M24.1052 0.940485C23.5822 0.417462 22.7342 0.417462 22.2111 0.940485L18.9758 4.1759C18.7551 4.09412 18.529 4.02819 18.3065 3.9739C17.6152 3.80531 16.8284 3.71913 16.0494 3.68029C14.4889 3.60251 12.8436 3.70978 11.8143 3.80244C10.9294 3.8821 10.1115 4.24933 9.45641 4.81938C6.62375 7.28429 4.01971 9.83415 1.5213 12.5922C0.0615836 14.2036 0.0305761 16.632 1.34298 18.3205C2.09303 19.2855 2.90296 20.2836 3.83246 21.213C4.76198 22.1425 5.75994 22.9525 6.72493 23.7025C8.41341 25.0148 10.8419 24.9839 12.4533 23.5241C15.2113 21.0257 17.7612 18.4218 20.2261 15.5891C20.7961 14.934 21.1634 14.1161 21.2431 13.2312C21.3358 12.2019 21.4429 10.5565 21.3652 8.9961C21.3263 8.21712 21.2402 7.43024 21.0715 6.73903C21.0174 6.51658 20.9515 6.29053 20.8697 6.07001L24.1052 2.83453C24.6283 2.31149 24.6283 1.46351 24.1052 0.940485ZM16.2327 6.8426C16.6686 6.40674 17.3752 6.40674 17.8111 6.8426C18.2468 7.27846 18.2468 7.98512 17.8111 8.42097L17.2394 8.9926C16.8036 9.42844 16.0969 9.42844 15.6611 8.9926C15.2252 8.55674 15.2252 7.85008 15.6611 7.41422L16.2327 6.8426Z" fill="#ADCEF4"/>
</g>
<defs>
<clipPath id="clip0_809_2245">
<rect width="25" height="25" fill="white"/>
</clipPath>
</defs>
</svg>
