<svg width="21" height="21" viewBox="0 0 21 21" fill="none" xmlns="http://www.w3.org/2000/svg">
<rect width="21" height="21" fill="#F5F5F5"/>
<g id="&#235;&#167;&#136;&#236;&#157;&#180;&#237;&#142;&#152;&#236;&#157;&#180;&#236;&#167;&#128;">
<g clip-path="url(#clip0_16_765)">
<rect x="-265" y="-204" width="360" height="800" rx="20" fill="#FCFCFC"/>
<rect id="Rectangle 548" x="-266" y="-176" width="361" height="213" fill="#F7FAFF"/>
<g id="Rectangle 672" filter="url(#filter0_d_16_765)">
<rect x="-247" y="-22" width="328" height="95" rx="7" fill="white"/>
</g>
<g id="Group 1000004255">
<g id="streamlinehq-programming-script-2-&#10;          solid-14-ico_GfHNW1Q0RtUj1v6v">
<path id="Vector" fill-rule="evenodd" clip-rule="evenodd" d="M15.7892 8.92035C15.826 9.29976 16.1479 9.58562 16.529 9.58562H18.7211C19.0588 9.58562 19.3547 9.36007 19.4443 9.03459C19.7716 7.84497 20.0113 6.02082 19.7242 4.38922C19.5797 3.56902 19.2935 2.74765 18.7711 2.08222C18.235 1.39956 17.4758 0.915798 16.474 0.759957C16.4431 0.755134 16.4117 0.752262 16.3804 0.751357C16.2818 0.748513 16.1801 0.750094 16.0762 0.756523C16.0174 0.760162 15.9583 0.757011 15.8993 0.753864L15.8632 0.75199C15.851 0.751398 15.8387 0.751098 15.8264 0.751098H5.38666C5.30964 0.751098 5.23306 0.762966 5.15964 0.786283C4.27372 1.06764 3.58033 1.52713 3.06231 2.14032C2.54875 2.74822 2.23762 3.4713 2.05608 4.23966C1.69947 5.74894 1.81879 7.55409 1.99506 9.294C2.03416 9.67988 2.0761 10.0632 2.11764 10.4427C2.26902 11.826 2.41491 13.1591 2.397 14.3831C2.37414 15.9457 2.08066 17.1294 1.3531 17.8971C1.2121 18.0459 1.13813 18.2458 1.1484 18.4506C1.15867 18.6553 1.25228 18.8469 1.40746 18.9809L1.40921 18.9823C1.44643 19.0141 1.48588 19.0437 1.52584 19.0719C1.58766 19.1157 1.67247 19.1712 1.78284 19.2342C2.0038 19.3603 2.32576 19.5158 2.76886 19.6665C3.65538 19.9683 5.01994 20.25 7.02361 20.25C9.0033 20.25 10.3845 20.0658 11.2866 19.8738C11.7376 19.7778 12.0687 19.6798 12.2947 19.602C12.4077 19.5632 12.4944 19.5294 12.5565 19.5035C12.5876 19.4904 12.6126 19.4795 12.6316 19.4708L12.6557 19.4595L12.6646 19.4552L12.6682 19.4535L12.6697 19.4526L12.6712 19.4519C12.7611 19.4072 12.8412 19.3449 12.9066 19.2686C14.0686 17.9136 14.396 16.1625 14.412 14.4058C14.4175 13.8018 14.3858 13.1788 14.3334 12.5518C14.2793 12.0619 14.2159 11.562 14.1514 11.0547L14.1464 11.015C13.9554 9.51349 13.7538 7.92825 13.8445 6.52749C13.9367 5.103 14.3412 3.68772 15.5338 2.71096C15.9343 2.38288 16.525 2.44165 16.853 2.84221C17.1812 3.24279 17.1224 3.83346 16.7218 4.16152C16.1066 4.66536 15.7924 5.46219 15.7156 6.64864C15.6709 7.33935 15.71 8.10024 15.7892 8.92035ZM5.89465 4.97067C5.37688 4.97067 4.95715 5.3904 4.95715 5.90817C4.95715 6.42594 5.37688 6.84567 5.89465 6.84567H9.35527C9.87304 6.84567 10.2928 6.42594 10.2928 5.90817C10.2928 5.3904 9.87304 4.97067 9.35527 4.97067H5.89465ZM5.40484 10.5C5.40484 9.98223 5.82457 9.5625 6.34234 9.5625H9.80296C10.3207 9.5625 10.7405 9.98223 10.7405 10.5C10.7405 11.0178 10.3207 11.4375 9.80296 11.4375H6.34234C5.82457 11.4375 5.40484 11.0178 5.40484 10.5ZM6.34234 14.1543C5.82457 14.1543 5.40484 14.5741 5.40484 15.0918C5.40484 15.6096 5.82457 16.0293 6.34234 16.0293H9.80296C10.3207 16.0293 10.7405 15.6096 10.7405 15.0918C10.7405 14.5741 10.3207 14.1543 9.80296 14.1543H6.34234Z" fill="#0A81CE"/>
</g>
</g>
</g>
</g>
<defs>
<filter id="filter0_d_16_765" x="-258" y="-31" width="354" height="121" filterUnits="userSpaceOnUse" color-interpolation-filters="sRGB">
<feFlood flood-opacity="0" result="BackgroundImageFix"/>
<feColorMatrix in="SourceAlpha" type="matrix" values="0 0 0 0 0 0 0 0 0 0 0 0 0 0 0 0 0 0 127 0" result="hardAlpha"/>
<feOffset dx="2" dy="4"/>
<feGaussianBlur stdDeviation="6.5"/>
<feComposite in2="hardAlpha" operator="out"/>
<feColorMatrix type="matrix" values="0 0 0 0 0.829167 0 0 0 0 0.829167 0 0 0 0 0.829167 0 0 0 0.25 0"/>
<feBlend mode="normal" in2="BackgroundImageFix" result="effect1_dropShadow_16_765"/>
<feBlend mode="normal" in="SourceGraphic" in2="effect1_dropShadow_16_765" result="shape"/>
</filter>
<clipPath id="clip0_16_765">
<rect x="-265" y="-204" width="360" height="800" rx="20" fill="white"/>
</clipPath>
</defs>
</svg>
