<svg width="31" height="18" viewBox="0 0 31 18" fill="none" xmlns="http://www.w3.org/2000/svg">
<path d="M4.986 16.134H14.184V17.25H3.708V11.868H4.986V16.134ZM13.77 12.768H12.51V0.995999H13.77V12.768ZM4.986 10.032C4.374 10.032 3.816 9.93 3.312 9.726C2.808 9.51 2.382 9.234 2.034 8.898C1.686 8.55 1.416 8.16 1.224 7.728C1.032 7.296 0.936 6.858 0.936 6.414V5.334C0.936 4.89 1.032 4.452 1.224 4.02C1.416 3.588 1.686 3.204 2.034 2.868C2.382 2.52 2.808 2.244 3.312 2.04C3.816 1.824 4.374 1.716 4.986 1.716C5.598 1.716 6.156 1.824 6.66 2.04C7.164 2.244 7.59 2.52 7.938 2.868C8.286 3.204 8.556 3.588 8.748 4.02C8.94 4.452 9.036 4.89 9.036 5.334V6.414C9.036 6.858 8.94 7.296 8.748 7.728C8.556 8.16 8.286 8.55 7.938 8.898C7.59 9.234 7.164 9.51 6.66 9.726C6.156 9.93 5.598 10.032 4.986 10.032ZM4.986 2.85C4.566 2.85 4.182 2.922 3.834 3.066C3.486 3.21 3.186 3.402 2.934 3.642C2.694 3.882 2.502 4.158 2.358 4.47C2.226 4.782 2.16 5.106 2.16 5.442V6.306C2.16 6.642 2.226 6.966 2.358 7.278C2.502 7.59 2.694 7.866 2.934 8.106C3.186 8.346 3.486 8.538 3.834 8.682C4.182 8.826 4.566 8.898 4.986 8.898C5.406 8.898 5.79 8.826 6.138 8.682C6.486 8.538 6.78 8.346 7.02 8.106C7.272 7.866 7.464 7.59 7.596 7.278C7.74 6.966 7.812 6.642 7.812 6.306V5.442C7.812 5.106 7.74 4.782 7.596 4.47C7.464 4.158 7.272 3.882 7.02 3.642C6.78 3.402 6.486 3.21 6.138 3.066C5.79 2.922 5.406 2.85 4.986 2.85ZM30.7863 7.962V9.042H23.8563V10.914H28.5363V14.73H19.1583V16.458H29.0223V17.52H17.9163V13.686H27.2943V11.976H17.8263V10.914H22.5963V9.042H15.6663V7.962H30.7863ZM28.5183 1.446V6.45H17.9343V1.446H28.5183ZM19.1763 5.352H27.2763V2.526H19.1763V5.352Z" fill="#575757"/>
</svg>
