<svg width="31" height="18" viewBox="0 0 31 18" fill="none" xmlns="http://www.w3.org/2000/svg">
<path d="M5.292 15.792H14.22V17.34H3.51V11.832H5.292V15.792ZM12.114 12.768V0.923999H13.878V12.768H12.114ZM7.434 5.46C7.434 5.184 7.386 4.908 7.29 4.632C7.194 4.356 7.044 4.11 6.84 3.894C6.648 3.666 6.396 3.486 6.084 3.354C5.784 3.21 5.418 3.138 4.986 3.138C4.554 3.138 4.182 3.21 3.87 3.354C3.558 3.486 3.3 3.666 3.096 3.894C2.904 4.11 2.76 4.356 2.664 4.632C2.58 4.908 2.538 5.184 2.538 5.46V6.252C2.538 6.528 2.586 6.804 2.682 7.08C2.778 7.356 2.922 7.608 3.114 7.836C3.318 8.052 3.57 8.232 3.87 8.376C4.182 8.508 4.554 8.574 4.986 8.574C5.418 8.574 5.784 8.508 6.084 8.376C6.396 8.232 6.648 8.052 6.84 7.836C7.044 7.608 7.194 7.356 7.29 7.08C7.386 6.804 7.434 6.528 7.434 6.252V5.46ZM0.828 5.388C0.828 4.98 0.912 4.554 1.08 4.11C1.248 3.654 1.506 3.24 1.854 2.868C2.202 2.496 2.634 2.19 3.15 1.95C3.666 1.71 4.278 1.59 4.986 1.59C5.682 1.59 6.288 1.71 6.804 1.95C7.332 2.19 7.77 2.496 8.118 2.868C8.466 3.24 8.724 3.654 8.892 4.11C9.06 4.554 9.144 4.98 9.144 5.388V6.324C9.144 6.732 9.06 7.164 8.892 7.62C8.724 8.064 8.466 8.472 8.118 8.844C7.77 9.216 7.332 9.522 6.804 9.762C6.288 10.002 5.682 10.122 4.986 10.122C4.278 10.122 3.666 10.002 3.15 9.762C2.634 9.522 2.202 9.216 1.854 8.844C1.506 8.472 1.248 8.064 1.08 7.62C0.912 7.164 0.828 6.732 0.828 6.324V5.388ZM17.7903 17.628V13.506H26.8983V12.282H17.7003V10.824H22.3263V9.258H15.6123V7.782H30.8403V9.258H24.1263V10.824H28.6443V14.928H19.5363V16.17H29.1303V17.628H17.7903ZM28.6263 6.648H17.8263V1.302H28.6263V6.648ZM26.8803 2.778H19.5723V5.172H26.8803V2.778Z" fill="#333333"/>
</svg>
