<svg width="18" height="21" viewBox="0 0 18 21" fill="none" xmlns="http://www.w3.org/2000/svg">
<path fill-rule="evenodd" clip-rule="evenodd" d="M5.49595 2.65487L6.92453 5.89664C5.08319 6.19858 3.53742 6.92624 2.36822 8.08897C0.782112 9.66629 0 11.9338 0 14.6899C0 16.0602 0.192341 17.1867 0.619963 18.0936C1.05752 19.0215 1.72024 19.674 2.56667 20.1136C3.39129 20.542 4.36527 20.7561 5.42383 20.8692C6.48474 20.9826 7.69049 21 9.00004 21C10.3096 21 11.5153 20.9826 12.5762 20.8692C13.6348 20.7561 14.6087 20.542 15.4334 20.1136C16.2798 19.674 16.9425 19.0215 17.3801 18.0936C17.8077 17.1867 18 16.0602 18 14.6899C18 11.9768 17.2423 9.73692 15.7046 8.1623C14.591 7.02207 13.1235 6.28713 11.3758 5.95016L11.3941 5.90971L12.8284 2.65487C12.9456 2.38885 13.0594 2.02378 13.0355 1.64159C13.0088 1.21304 12.7961 0.735714 12.2658 0.487393L11.9209 1.22324L12.2658 0.487393C11.8663 0.300347 11.3561 0.183616 10.8446 0.110785C10.3197 0.0360588 9.73728 0 9.16217 0C8.58705 0 8.00461 0.0360588 7.47976 0.110785C6.96821 0.183616 6.45801 0.300347 6.05854 0.487393C5.52821 0.735714 5.31556 1.21304 5.2888 1.64159C5.26493 2.02378 5.37873 2.38885 5.49595 2.65487Z" fill="#0A81CE"/>
</svg>
