<svg width="143" height="143" viewBox="0 0 143 143" fill="none" xmlns="http://www.w3.org/2000/svg">
<circle cx="71.5" cy="71.5" r="71.5" fill="#F0F0F0"/>
<path fill-rule="evenodd" clip-rule="evenodd" d="M73 54.1025C71.1809 54.1025 69.5782 54.6181 68.4315 55.7648C67.2848 56.9115 66.7692 58.5142 66.7692 60.3333C66.7692 62.1524 67.2848 63.7551 68.4315 64.9018C69.5782 66.0485 71.1809 66.5641 73 66.5641C74.8191 66.5641 76.4218 66.0485 77.5685 64.9018C78.7152 63.7551 79.2308 62.1524 79.2308 60.3333C79.2308 58.5142 78.7152 56.9115 77.5685 55.7648C76.4218 54.6181 74.8191 54.1025 73 54.1025ZM80.7945 87.0288C77.9232 87.785 75.569 88.244 73.1372 88.2736C70.6973 88.3032 68.2509 87.9002 65.1795 87.0218C64.6277 86.8639 64.2474 86.3594 64.2474 85.7855C64.2474 81.9186 64.5667 77.7297 65.7385 74.4658C66.3274 72.8256 67.1616 71.3321 68.359 70.2394C69.5847 69.1209 71.1328 68.4779 73.0001 68.4779C74.8674 68.4779 76.4156 69.1209 77.6413 70.2394C78.8386 71.3321 79.6728 72.8256 80.2617 74.4658C81.4335 77.7297 81.7529 81.9186 81.7529 85.7855C81.7529 86.3695 81.3592 86.8801 80.7945 87.0288Z" fill="#4E4E4E"/>
</svg>
