<svg width="30" height="18" viewBox="0 0 30 18" fill="none" xmlns="http://www.w3.org/2000/svg">
<path d="M13.536 8.988C12.852 8.736 12.192 8.484 11.556 8.232C10.92 7.98 10.362 7.752 9.882 7.548C9.318 7.308 8.85 7.074 8.478 6.846C8.118 6.606 7.872 6.378 7.74 6.162H7.722C7.59 6.402 7.338 6.636 6.966 6.864C6.606 7.092 6.144 7.326 5.58 7.566C5.1 7.77 4.542 7.998 3.906 8.25C3.282 8.49 2.61 8.748 1.89 9.024L1.404 8.07C1.728 7.95 2.064 7.824 2.412 7.692C2.76 7.56 3.102 7.428 3.438 7.296C3.786 7.152 4.11 7.02 4.41 6.9C4.71 6.768 4.968 6.654 5.184 6.558C5.892 6.234 6.384 5.904 6.66 5.568C6.948 5.232 7.092 4.818 7.092 4.326V3.894H2.106V2.814H7.092V0.887999H8.37V2.814H13.374V3.894H8.37V4.326C8.37 4.578 8.4 4.806 8.46 5.01C8.52 5.202 8.622 5.388 8.766 5.568C8.922 5.748 9.12 5.922 9.36 6.09C9.612 6.246 9.918 6.402 10.278 6.558C10.722 6.762 11.262 6.996 11.898 7.26C12.546 7.512 13.242 7.776 13.986 8.052L13.536 8.988ZM15.3 10.68V11.778H8.388V17.448H7.11V11.778H0.18V10.68H15.3ZM20.9943 7.44C20.9583 7.572 20.8083 7.776 20.5443 8.052C20.2923 8.328 19.9743 8.634 19.5903 8.97C19.4343 9.114 19.2423 9.276 19.0143 9.456C18.7983 9.636 18.5643 9.822 18.3123 10.014C18.0723 10.206 17.8263 10.398 17.5743 10.59C17.3343 10.782 17.1123 10.95 16.9083 11.094L16.1343 10.194C16.6743 9.81 17.2143 9.408 17.7543 8.988C18.2943 8.556 18.7863 8.124 19.2303 7.692C19.6743 7.26 19.9623 6.864 20.0943 6.504C20.2383 6.144 20.3103 5.73 20.3103 5.262V4.038H16.5123V2.94H20.3103V0.87H21.5883V2.94H25.1883V4.038H21.5883V5.208C21.5883 5.46 21.6003 5.688 21.6243 5.892C21.6483 6.096 21.7023 6.294 21.7863 6.486C21.8823 6.666 22.0143 6.858 22.1823 7.062C22.3623 7.254 22.5963 7.476 22.8843 7.728C23.1723 7.968 23.5503 8.262 24.0183 8.61C24.4863 8.958 24.9783 9.306 25.4943 9.654L24.7563 10.554C24.3963 10.302 24.0183 10.032 23.6223 9.744C23.2383 9.444 22.9083 9.186 22.6323 8.97C22.2123 8.622 21.8463 8.31 21.5343 8.034C21.2223 7.758 21.0483 7.56 21.0123 7.44H20.9943ZM28.0863 5.838V0.995999H29.3463V12.75H28.0863V6.954H24.7203V5.838H28.0863ZM20.5443 16.134H29.7603V17.25H19.2663V12.012H20.5443V16.134Z" fill="#333333"/>
</svg>
