<svg width="30" height="18" viewBox="0 0 30 18" fill="none" xmlns="http://www.w3.org/2000/svg">
<path d="M2.052 4.164V2.652H6.84V0.833999H8.622V2.652H13.428V4.164H8.622V4.29C8.622 4.47 8.64 4.65 8.676 4.83C8.724 4.998 8.808 5.166 8.928 5.334C9.048 5.49 9.216 5.652 9.432 5.82C9.66 5.976 9.948 6.138 10.296 6.306C10.896 6.582 11.502 6.846 12.114 7.098C12.726 7.338 13.374 7.578 14.058 7.818L13.464 9.204C12.696 8.928 12.006 8.67 11.394 8.43C10.782 8.178 10.23 7.944 9.738 7.728C9.138 7.464 8.688 7.236 8.388 7.044C8.088 6.84 7.872 6.636 7.74 6.432H7.722C7.59 6.66 7.374 6.87 7.074 7.062C6.774 7.254 6.324 7.482 5.724 7.746C5.232 7.962 4.68 8.19 4.068 8.43C3.456 8.67 2.766 8.928 1.998 9.204L1.368 7.818C2.052 7.578 2.706 7.338 3.33 7.098C3.954 6.846 4.56 6.582 5.148 6.306C5.496 6.15 5.778 5.988 5.994 5.82C6.21 5.652 6.378 5.484 6.498 5.316C6.63 5.148 6.72 4.98 6.768 4.812C6.816 4.632 6.84 4.458 6.84 4.29V4.164H2.052ZM6.858 17.52V12.048H0.144V10.536H15.372V12.048H8.658V17.52H6.858ZM20.9943 7.674C20.9343 7.83 20.7903 8.046 20.5623 8.322C20.3343 8.586 20.0763 8.838 19.7883 9.078C19.4043 9.414 18.9723 9.768 18.4923 10.14C18.0243 10.512 17.5383 10.872 17.0343 11.22L15.9903 9.942C16.5663 9.534 17.1063 9.138 17.6103 8.754C18.1143 8.358 18.5283 8.004 18.8523 7.692C19.0683 7.476 19.2543 7.266 19.4103 7.062C19.5663 6.858 19.6863 6.648 19.7703 6.432C19.8663 6.216 19.9323 5.982 19.9683 5.73C20.0163 5.478 20.0403 5.19 20.0403 4.866V4.326H16.4583V2.796H20.0403V0.815999H21.8403V2.796H25.1883V4.326H21.8403V4.794C21.8403 5.07 21.8523 5.322 21.8763 5.55C21.9003 5.766 21.9423 5.97 22.0023 6.162C22.0743 6.354 22.1703 6.54 22.2903 6.72C22.4103 6.888 22.5723 7.062 22.7763 7.242C23.1963 7.626 23.6403 7.998 24.1083 8.358C24.5763 8.706 25.0803 9.054 25.6203 9.402L24.6123 10.698C24.1443 10.374 23.7063 10.056 23.2983 9.744C22.8903 9.432 22.4703 9.096 22.0383 8.736C21.7623 8.508 21.5343 8.31 21.3543 8.142C21.1863 7.962 21.0723 7.806 21.0123 7.674H20.9943ZM27.7083 12.75V7.152H24.7203V5.622H27.7083V0.923999H29.4723V12.75H27.7083ZM20.8863 15.792H29.8143V17.34H19.1043V12.012H20.8863V15.792Z" fill="#333333"/>
</svg>
