<svg width="14" height="14" viewBox="0 0 14 14" fill="none" xmlns="http://www.w3.org/2000/svg">
<path fill-rule="evenodd" clip-rule="evenodd" d="M2.01685 6.01757C2.01685 3.80843 3.80771 2.01757 6.01685 2.01757C8.22598 2.01757 10.0168 3.80843 10.0168 6.01757C10.0168 8.22671 8.22598 10.0176 6.01685 10.0176C3.80771 10.0176 2.01685 8.22671 2.01685 6.01757ZM6.01685 0.0175781C2.70314 0.0175781 0.0168457 2.70387 0.0168457 6.01757C0.0168457 9.33128 2.70314 12.0176 6.01685 12.0176C7.31268 12.0176 8.51256 11.6068 9.49338 10.9084L12.2764 13.6914C12.6669 14.0819 13.3001 14.0819 13.6906 13.6914C14.0811 13.3008 14.0811 12.6677 13.6906 12.2772L10.9076 9.49411C11.6061 8.5133 12.0168 7.3134 12.0168 6.01757C12.0168 2.70387 9.33055 0.0175781 6.01685 0.0175781Z" fill="#0A81CE"/>
</svg>
