<svg width="360" height="180" viewBox="0 0 360 180" fill="none" xmlns="http://www.w3.org/2000/svg">
<rect width="361" height="180" fill="url(#paint0_linear_2217_6530)"/>
<path d="M183.557 58.418C184.449 63.7915 182.306 69.6212 176.012 70.6272C169.979 71.5915 166.09 66.7251 165.198 61.3517C164.301 55.9497 166.41 50.0956 172.443 49.1323C178.737 48.1263 182.661 53.0161 183.558 58.419L183.557 58.418ZM167.15 61.0397C167.981 66.0423 171.171 70.6668 175.892 69.9128C180.847 69.1212 182.377 63.7417 181.546 58.7391C180.715 53.7365 177.519 49.0835 172.565 49.8751C167.844 50.6291 166.319 56.0371 167.15 61.0397Z" fill="black"/>
<path d="M184.5 68.2171L185.011 67.6527C186.677 69.0469 187.63 69.0889 188.651 67.9611L199.5 55.9845C200.521 54.8567 200.346 53.9576 198.68 52.5634L199.191 52L202.36 54.65L200.765 77.1785L211.431 65.4055C212.228 64.5263 211.944 63.6545 210.113 62.1239L210.624 61.5595L216 66.0549L215.489 66.6193C213.939 65.3236 212.888 65.118 212.111 65.9751L198.953 80.5L198.577 80.1863L200.368 56.3947L189.355 68.5517C188.333 69.6795 188.462 70.5398 190.387 72.1491L189.876 72.7135L184.5 68.2181V68.2171Z" fill="black"/>
<path d="M205.147 81.6472C202.955 83.5304 200.489 86.3578 201.005 90.57C201.373 93.5876 202.862 95.7359 206.279 95.306C209.165 94.9427 209.889 93.032 210.648 88.2347C211.214 84.7968 212.249 81.0261 216.077 80.5455C218.551 80.234 221.63 81.4549 222.218 86.2649C222.481 88.4153 221.843 89.8 221.938 90.5774C221.957 90.7263 221.971 90.8467 222.041 90.928L222.75 92.3254L217.686 94.9342L217.338 94.5234C220.038 92.3941 221.892 89.7039 221.468 86.2385C221.173 83.8187 219.81 81.7148 216.775 82.0971C213.654 82.49 212.833 85.5657 212.367 88.8389C211.77 93.0088 210.817 96.4657 207.047 96.9389C202.894 97.4607 200.747 94.5762 200.28 90.7527C200.021 88.6318 200.733 86.6314 200.65 85.9438C200.569 85.2868 200.051 84.4725 199.5 83.8736L204.84 81.0789L205.148 81.6472H205.147Z" fill="black"/>
<path d="M201.507 97.751L202.036 98.2475C200.622 99.8783 200.751 100.837 201.79 101.81L213.069 112.375C214.087 113.329 214.806 113.164 216.22 111.533L216.75 112.03L209.64 120.226C207.519 122.671 204.382 123.407 201.944 121.123C199.188 118.541 199.444 115.146 201.737 112.502L205.674 107.964L200.586 103.197C199.548 102.224 198.597 102.213 197.03 104.018L196.5 103.522L201.508 97.75L201.507 97.751ZM206.204 108.461L202.591 112.625C200.565 114.961 201.546 117.995 203.262 119.603C204.958 121.192 207.581 121.492 209.568 119.201L211.842 116.579C212.779 115.5 212.881 114.717 211.864 113.764L206.203 108.461H206.204Z" fill="black"/>
<path d="M190.851 110.5L190.891 111.238C188.707 111.359 188.16 112.07 188.237 113.485L189.097 129.351C189.168 130.648 189.776 131.088 191.96 130.966L192 131.704L182.533 132.23C178.017 132.48 175.567 130.398 175.404 127.39C175.254 124.618 176.9 122.101 180.792 121.678L175.584 113.449C174.914 112.392 174.084 112.172 172.54 112.258L172.5 111.521L176.433 111.302L182.772 121.539L186.821 121.315L186.403 113.588C186.326 112.173 185.532 111.536 183.493 111.649L183.453 110.911L190.851 110.501V110.5ZM186.861 122.05L181.472 122.35C178.238 122.529 177.287 124.919 177.414 127.278C177.566 130.08 179.492 131.659 182.639 131.484L185.232 131.34C186.601 131.265 187.332 130.751 187.263 129.453L186.861 122.051V122.05Z" fill="black"/>
<path d="M160.754 127.75L153.75 123.591L154.159 122.979C156.182 124.181 157.102 124.214 157.918 122.991L166.822 109.657C167.476 108.678 167.111 107.813 165.088 106.612L165.496 106L172.5 110.159L172.091 110.771C170.068 109.569 169.083 109.634 168.43 110.612L159.526 123.946C158.71 125.169 159.139 125.936 161.162 127.138L160.754 127.75Z" fill="black"/>
<path d="M164.25 107.765L163.538 108.016C162.816 106.016 162.031 105.531 160.607 106.035L145.491 111.378C144.067 111.881 143.77 112.749 144.493 114.748L143.781 115L142.408 111.198L154.909 92.2955L140.048 97.5474C138.938 97.9399 138.747 98.8331 139.54 101.03L138.828 101.282L136.5 94.8312L137.212 94.5793C137.883 96.438 138.672 97.1118 139.753 96.7298L158.087 90.25L158.249 90.7002L144.957 110.612L160.302 105.189C161.725 104.686 162.043 103.875 161.209 101.565L161.921 101.313L164.25 107.763V107.765Z" fill="black"/>
<path d="M159.413 66.4847L160.08 66.895C159.126 68.5833 159.44 69.4979 160.647 70.24L166.5 73.8425L165.819 75.0484L164.227 74.6828C164.294 76.2772 164.459 78.4359 163.021 80.982C160.145 86.0719 154.915 87.3673 148.625 83.4975C142.977 80.0216 140.929 74.0313 143.776 68.9948C144.699 67.36 145.764 66.2108 146.343 65.7361L147.056 63.25L152.696 64.2289L152.633 64.768C150.085 65.114 146.476 65.7459 144.493 69.2556C142.313 73.1135 144.365 78.4206 149.526 81.5964C155.688 85.3877 160.487 83.9362 162.38 80.5869C164.014 77.6938 163.278 74.0989 161.711 73.1353L159.709 71.9032C158.502 71.1611 157.568 71.3444 156.205 73.7552L155.538 73.3448L159.414 66.4858L159.413 66.4847Z" fill="black"/>
<circle cx="180" cy="91" r="47.5" stroke="black"/>
<path d="M107 62.5H72" stroke="#614D4D"/>
<path d="M89.5 45V80" stroke="#614D4D"/>
<path d="M101.875 50.125L77.1258 74.8737" stroke="#614D4D"/>
<path d="M77.126 50.125L101.875 74.8737" stroke="#614D4D"/>
<path d="M329 143H281" stroke="#614D4D"/>
<path d="M305 119V167" stroke="#614D4D"/>
<path d="M321.971 126.029L288.03 159.97" stroke="#614D4D"/>
<path d="M288.03 126.029L321.971 159.97" stroke="#614D4D"/>
<path d="M48.0454 133.955L44.1079 137.893" stroke="#614D4D"/>
<path d="M32.8911 149.109L28.9536 153.047" stroke="#614D4D"/>
<path d="M38.5 130V135.568" stroke="#614D4D"/>
<path d="M38.5 151.432V157" stroke="#614D4D"/>
<path d="M28.9604 133.949L32.8955 137.889" stroke="#614D4D"/>
<path d="M44.105 149.113L48.04 153.053" stroke="#614D4D"/>
<path d="M25.0005 143.41L30.5688 143.447" stroke="#614D4D"/>
<path d="M46.4312 143.553L51.9995 143.589" stroke="#614D4D"/>
<path d="M317.652 30.6426L309.339 39.2467" stroke="#614D4D"/>
<path d="M285.659 63.7578L277.347 72.362" stroke="#614D4D"/>
<path d="M297.5 22.002V34.1701" stroke="#614D4D"/>
<path d="M297.5 68.834V81.0021" stroke="#614D4D"/>
<path d="M277.361 30.6289L285.669 39.2385" stroke="#614D4D"/>
<path d="M309.333 63.7656L317.641 72.3752" stroke="#614D4D"/>
<path d="M269.001 51.3027L280.757 51.383" stroke="#614D4D"/>
<path d="M314.244 51.6152L326 51.6955" stroke="#614D4D"/>
<defs>
<linearGradient id="paint0_linear_2217_6530" x1="-4.97629e-06" y1="5.00001" x2="357" y2="180" gradientUnits="userSpaceOnUse">
<stop stop-color="#FFDCFE"/>
<stop offset="0.494792" stop-color="#FFFEE7" stop-opacity="0.17"/>
<stop offset="1" stop-color="#99F3FF" stop-opacity="0.13"/>
</linearGradient>
</defs>
</svg>
