<svg width="45" height="18" viewBox="0 0 45 18" fill="none" xmlns="http://www.w3.org/2000/svg">
<path d="M13.266 9.042H2.376V1.878H13.122V2.958H3.618V4.92H13.032V6H3.618V7.962H13.266V9.042ZM15.3 10.968V12.066H8.388V17.448H7.11V12.066H0.18V10.968H15.3ZM22.6503 2.562V3.714H17.7183V11.814H18.7083C19.2003 11.814 19.6623 11.808 20.0943 11.796C20.5263 11.784 20.9463 11.766 21.3543 11.742C21.7623 11.718 22.1643 11.682 22.5603 11.634C22.9563 11.586 23.3583 11.526 23.7663 11.454L23.9103 12.588C23.0463 12.732 22.2063 12.834 21.3903 12.894C20.5863 12.942 19.7283 12.966 18.8163 12.966H16.4403V2.562H22.6503ZM25.2423 6.9V1.338H26.5023V16.638H25.2423V8.052H21.6783V6.9H25.2423ZM29.7423 17.448H28.4823V0.995999H29.7423V17.448ZM44.7247 17.448H43.4467V0.995999H44.7247V17.448ZM40.1887 8.628C40.1887 10.14 39.8287 11.316 39.1087 12.156C38.4007 12.996 37.4047 13.416 36.1207 13.416C34.8367 13.416 33.8347 12.996 33.1147 12.156C32.4067 11.316 32.0527 10.14 32.0527 8.628V6.918C32.0527 5.406 32.4067 4.236 33.1147 3.408C33.8347 2.568 34.8367 2.148 36.1207 2.148C37.4047 2.148 38.4007 2.568 39.1087 3.408C39.8287 4.248 40.1887 5.424 40.1887 6.936V8.628ZM38.9467 7.152C38.9467 6.468 38.8747 5.886 38.7307 5.406C38.5987 4.926 38.4067 4.536 38.1547 4.236C37.9147 3.924 37.6207 3.696 37.2727 3.552C36.9247 3.408 36.5407 3.336 36.1207 3.336C35.7007 3.336 35.3167 3.408 34.9687 3.552C34.6207 3.696 34.3207 3.924 34.0687 4.236C33.8287 4.536 33.6367 4.926 33.4927 5.406C33.3607 5.886 33.2947 6.468 33.2947 7.152V8.412C33.2947 9.096 33.3607 9.684 33.4927 10.176C33.6367 10.656 33.8287 11.052 34.0687 11.364C34.3207 11.664 34.6207 11.886 34.9687 12.03C35.3167 12.174 35.7007 12.246 36.1207 12.246C36.5407 12.246 36.9247 12.174 37.2727 12.03C37.6207 11.886 37.9147 11.664 38.1547 11.364C38.4067 11.052 38.5987 10.656 38.7307 10.176C38.8747 9.684 38.9467 9.096 38.9467 8.412V7.152Z" fill="#575757"/>
</svg>
