<svg width="45" height="18" viewBox="0 0 45 18" fill="none" xmlns="http://www.w3.org/2000/svg">
<path d="M13.392 9.348H2.178V1.77H13.14V3.264H3.942V4.812H13.014V6.306H3.942V7.854H13.392V9.348ZM6.84 17.52V12.372H0.126V10.86H15.354V12.372H8.64V17.52H6.84ZM22.6863 4.056H18.0963V11.526H19.0143C19.8303 11.526 20.5983 11.502 21.3183 11.454C22.0383 11.406 22.8243 11.316 23.6763 11.184L23.8563 12.678C23.3883 12.75 22.9383 12.816 22.5063 12.876C22.0863 12.924 21.6663 12.966 21.2463 13.002C20.8263 13.026 20.4063 13.044 19.9863 13.056C19.5663 13.068 19.1223 13.074 18.6543 13.074H16.2963V2.508H22.6863V4.056ZM24.9723 1.266H26.7183V16.71H24.9723V8.25H21.6603V6.702H24.9723V1.266ZM30.0843 17.52H28.3383V0.923999H30.0843V17.52ZM43.0687 17.52V0.923999H44.8507V17.52H43.0687ZM36.1207 2.04C36.7327 2.04 37.2907 2.142 37.7947 2.346C38.3107 2.55 38.7547 2.856 39.1267 3.264C39.4987 3.672 39.7867 4.176 39.9907 4.776C40.2067 5.376 40.3147 6.072 40.3147 6.864V8.736C40.3147 9.528 40.2067 10.224 39.9907 10.824C39.7867 11.424 39.4987 11.928 39.1267 12.336C38.7547 12.732 38.3107 13.032 37.7947 13.236C37.2907 13.44 36.7327 13.542 36.1207 13.542C35.5087 13.542 34.9447 13.44 34.4287 13.236C33.9247 13.032 33.4867 12.732 33.1147 12.336C32.7427 11.928 32.4487 11.424 32.2327 10.824C32.0287 10.224 31.9267 9.528 31.9267 8.736V6.864C31.9267 6.072 32.0287 5.376 32.2327 4.776C32.4487 4.164 32.7427 3.66 33.1147 3.264C33.4867 2.856 33.9247 2.55 34.4287 2.346C34.9447 2.142 35.5087 2.04 36.1207 2.04ZM36.1207 11.94C36.4447 11.94 36.7567 11.88 37.0567 11.76C37.3567 11.64 37.6207 11.442 37.8487 11.166C38.0767 10.89 38.2567 10.536 38.3887 10.104C38.5327 9.66 38.6047 9.12 38.6047 8.484V7.116C38.6047 6.48 38.5327 5.946 38.3887 5.514C38.2567 5.07 38.0707 4.71 37.8307 4.434C37.6027 4.158 37.3387 3.96 37.0387 3.84C36.7507 3.72 36.4447 3.66 36.1207 3.66C35.7967 3.66 35.4847 3.72 35.1847 3.84C34.8847 3.96 34.6207 4.158 34.3927 4.434C34.1647 4.71 33.9787 5.07 33.8347 5.514C33.7027 5.946 33.6367 6.48 33.6367 7.116V8.484C33.6367 9.12 33.7027 9.66 33.8347 10.104C33.9787 10.536 34.1647 10.89 34.3927 11.166C34.6207 11.442 34.8847 11.64 35.1847 11.76C35.4847 11.88 35.7967 11.94 36.1207 11.94Z" fill="#333333"/>
</svg>
