<svg width="30" height="18" viewBox="0 0 30 18" fill="none" xmlns="http://www.w3.org/2000/svg">
<path d="M13.824 17.466H12.582V10.554H8.604C8.34 11.466 7.884 12.168 7.236 12.66C6.6 13.14 5.796 13.38 4.824 13.38C3.552 13.38 2.556 12.966 1.836 12.138C1.128 11.298 0.774 10.122 0.774 8.61V6.918C0.774 5.418 1.128 4.254 1.836 3.426C2.556 2.586 3.552 2.166 4.824 2.166C5.784 2.166 6.582 2.412 7.218 2.904C7.866 3.384 8.328 4.074 8.604 4.974H12.582V0.995999H13.824V17.466ZM7.632 7.152C7.632 6.468 7.566 5.886 7.434 5.406C7.302 4.926 7.11 4.536 6.858 4.236C6.618 3.924 6.324 3.702 5.976 3.57C5.628 3.426 5.244 3.354 4.824 3.354C4.404 3.354 4.02 3.426 3.672 3.57C3.324 3.702 3.024 3.924 2.772 4.236C2.532 4.536 2.346 4.926 2.214 5.406C2.082 5.886 2.016 6.468 2.016 7.152V8.394C2.016 9.078 2.082 9.666 2.214 10.158C2.346 10.638 2.532 11.034 2.772 11.346C3.024 11.646 3.324 11.868 3.672 12.012C4.02 12.144 4.404 12.21 4.824 12.21C5.244 12.21 5.628 12.144 5.976 12.012C6.324 11.868 6.618 11.646 6.858 11.346C7.11 11.034 7.302 10.638 7.434 10.158C7.566 9.666 7.632 9.078 7.632 8.394V7.152ZM8.874 8.61C8.874 8.742 8.868 8.874 8.856 9.006C8.856 9.138 8.85 9.27 8.838 9.402H12.582V6.126H8.838C8.85 6.258 8.856 6.396 8.856 6.54C8.868 6.672 8.874 6.804 8.874 6.936V8.61ZM24.6123 17.898C23.9523 17.898 23.3163 17.844 22.7043 17.736C22.0923 17.628 21.5463 17.46 21.0663 17.232C20.5983 17.004 20.2203 16.71 19.9323 16.35C19.6563 16.002 19.5183 15.582 19.5183 15.09V14.424C19.5183 13.932 19.6563 13.512 19.9323 13.164C20.2203 12.804 20.5983 12.516 21.0663 12.3C21.5463 12.072 22.0923 11.904 22.7043 11.796C23.3163 11.688 23.9523 11.634 24.6123 11.634C25.2723 11.634 25.9083 11.688 26.5203 11.796C27.1323 11.904 27.6723 12.072 28.1403 12.3C28.6203 12.528 28.9983 12.822 29.2743 13.182C29.5623 13.53 29.7063 13.95 29.7063 14.442V15.09C29.7063 15.582 29.5623 16.002 29.2743 16.35C28.9983 16.71 28.6203 17.004 28.1403 17.232C27.6723 17.46 27.1323 17.628 26.5203 17.736C25.9083 17.844 25.2723 17.898 24.6123 17.898ZM19.7523 10.752C19.2483 10.752 18.7863 10.686 18.3663 10.554C17.9583 10.41 17.6043 10.218 17.3043 9.978C17.0163 9.738 16.7883 9.468 16.6203 9.168C16.4643 8.856 16.3863 8.526 16.3863 8.178V7.53C16.3863 7.182 16.4643 6.852 16.6203 6.54C16.7883 6.228 17.0163 5.958 17.3043 5.73C17.6043 5.49 17.9583 5.304 18.3663 5.172C18.7863 5.028 19.2483 4.956 19.7523 4.956C20.2563 4.956 20.7123 5.028 21.1203 5.172C21.5403 5.304 21.8943 5.49 22.1823 5.73C22.4823 5.958 22.7103 6.228 22.8663 6.54C23.0343 6.852 23.1183 7.182 23.1183 7.53V8.178C23.1183 8.526 23.0343 8.856 22.8663 9.168C22.7103 9.468 22.4823 9.738 22.1823 9.978C21.8943 10.218 21.5403 10.41 21.1203 10.554C20.7123 10.686 20.2563 10.752 19.7523 10.752ZM29.6163 11.166H28.3743V6.504H26.0343V10.464H24.7923V1.212H26.0343V5.37H28.3743V0.995999H29.6163V11.166ZM24.6123 12.714C24.1563 12.714 23.6943 12.75 23.2263 12.822C22.7703 12.882 22.3563 12.984 21.9843 13.128C21.6123 13.272 21.3123 13.458 21.0843 13.686C20.8563 13.914 20.7423 14.19 20.7423 14.514V15.018C20.7423 15.342 20.8563 15.618 21.0843 15.846C21.3123 16.074 21.6123 16.26 21.9843 16.404C22.3563 16.548 22.7703 16.65 23.2263 16.71C23.6943 16.782 24.1563 16.818 24.6123 16.818C25.0683 16.818 25.5243 16.782 25.9803 16.71C26.4483 16.65 26.8623 16.548 27.2223 16.404C27.5943 16.26 27.8943 16.074 28.1223 15.846C28.3623 15.618 28.4823 15.342 28.4823 15.018V14.514C28.4823 14.19 28.3623 13.914 28.1223 13.686C27.8943 13.458 27.5943 13.272 27.2223 13.128C26.8623 12.984 26.4483 12.882 25.9803 12.822C25.5243 12.75 25.0683 12.714 24.6123 12.714ZM19.7523 6C19.0803 6 18.5403 6.162 18.1323 6.486C17.7363 6.798 17.5383 7.17 17.5383 7.602V8.106C17.5383 8.538 17.7363 8.916 18.1323 9.24C18.5403 9.552 19.0803 9.708 19.7523 9.708C20.4243 9.708 20.9583 9.552 21.3543 9.24C21.7623 8.916 21.9663 8.538 21.9663 8.106V7.602C21.9663 7.17 21.7623 6.798 21.3543 6.486C20.9583 6.162 20.4243 6 19.7523 6ZM19.1223 3.03V0.995999H20.3823V3.03H23.4603V4.128H15.7743V3.03H19.1223Z" fill="#575757"/>
</svg>
