<svg width="30" height="19" viewBox="0 0 30 19" fill="none" xmlns="http://www.w3.org/2000/svg">
<path d="M12.222 17.52V10.68H8.748C8.46 11.628 7.968 12.342 7.272 12.822C6.588 13.29 5.778 13.524 4.842 13.524C4.23 13.524 3.666 13.422 3.15 13.218C2.646 13.014 2.208 12.714 1.836 12.318C1.476 11.922 1.188 11.424 0.972 10.824C0.768 10.224 0.666 9.528 0.666 8.736V6.864C0.666 6.072 0.768 5.376 0.972 4.776C1.188 4.176 1.476 3.678 1.836 3.282C2.208 2.874 2.646 2.568 3.15 2.364C3.666 2.16 4.23 2.058 4.842 2.058C5.754 2.058 6.546 2.286 7.218 2.742C7.89 3.186 8.382 3.858 8.694 4.758H12.222V0.923999H14.004V17.52H12.222ZM4.842 11.922C5.166 11.922 5.478 11.862 5.778 11.742C6.078 11.622 6.336 11.43 6.552 11.166C6.78 10.89 6.96 10.536 7.092 10.104C7.236 9.66 7.308 9.12 7.308 8.484V7.116C7.308 6.48 7.236 5.946 7.092 5.514C6.96 5.07 6.78 4.716 6.552 4.452C6.336 4.176 6.078 3.978 5.778 3.858C5.478 3.738 5.166 3.678 4.842 3.678C4.518 3.678 4.206 3.738 3.906 3.858C3.606 3.978 3.342 4.176 3.114 4.452C2.898 4.716 2.718 5.07 2.574 5.514C2.442 5.946 2.376 6.48 2.376 7.116V8.484C2.376 9.12 2.442 9.66 2.574 10.104C2.718 10.536 2.898 10.89 3.114 11.166C3.342 11.43 3.606 11.622 3.906 11.742C4.206 11.862 4.518 11.922 4.842 11.922ZM9.018 8.736C9.018 8.796 9.018 8.862 9.018 8.934C9.018 8.994 9.012 9.054 9 9.114H12.222V6.324H9C9 6.42 9 6.51 9 6.594C9.012 6.678 9.018 6.768 9.018 6.864V8.736ZM19.4643 14.424C19.4643 13.956 19.5843 13.542 19.8243 13.182C20.0643 12.822 20.4063 12.522 20.8503 12.282C21.3063 12.03 21.8523 11.844 22.4883 11.724C23.1363 11.592 23.8563 11.526 24.6483 11.526C25.4403 11.526 26.1543 11.592 26.7903 11.724C27.4263 11.844 27.9663 12.03 28.4103 12.282C28.8663 12.522 29.2143 12.822 29.4543 13.182C29.7063 13.542 29.8323 13.956 29.8323 14.424V15.108C29.8323 15.576 29.7063 15.99 29.4543 16.35C29.2143 16.71 28.8663 17.01 28.4103 17.25C27.9663 17.502 27.4263 17.688 26.7903 17.808C26.1543 17.94 25.4403 18.006 24.6483 18.006C23.8563 18.006 23.1363 17.94 22.4883 17.808C21.8523 17.688 21.3063 17.502 20.8503 17.25C20.4063 17.01 20.0643 16.71 19.8243 16.35C19.5843 15.99 19.4643 15.576 19.4643 15.108V14.424ZM28.0143 0.923999H29.7243V11.202H28.0143V6.702H26.3943V10.5H24.7023V1.14H26.3943V5.172H28.0143V0.923999ZM19.7523 10.86C19.2123 10.86 18.7263 10.788 18.2943 10.644C17.8743 10.5 17.5143 10.308 17.2143 10.068C16.9263 9.828 16.6983 9.552 16.5303 9.24C16.3743 8.928 16.2963 8.598 16.2963 8.25V7.566C16.2963 7.218 16.3743 6.888 16.5303 6.576C16.6983 6.252 16.9263 5.97 17.2143 5.73C17.5143 5.49 17.8743 5.304 18.2943 5.172C18.7263 5.028 19.2123 4.956 19.7523 4.956C20.2923 4.956 20.7723 5.028 21.1923 5.172C21.6243 5.304 21.9843 5.49 22.2723 5.73C22.5723 5.97 22.8003 6.252 22.9563 6.576C23.1243 6.888 23.2083 7.218 23.2083 7.566V8.25C23.2083 8.598 23.1243 8.928 22.9563 9.24C22.8003 9.552 22.5723 9.828 22.2723 10.068C21.9843 10.308 21.6243 10.5 21.1923 10.644C20.7723 10.788 20.2923 10.86 19.7523 10.86ZM28.0863 14.532C28.0863 14.304 28.0023 14.094 27.8343 13.902C27.6663 13.71 27.4323 13.548 27.1323 13.416C26.8323 13.272 26.4663 13.164 26.0343 13.092C25.6143 13.02 25.1523 12.984 24.6483 12.984C24.1443 12.984 23.6763 13.02 23.2443 13.092C22.8243 13.164 22.4643 13.272 22.1643 13.416C21.8643 13.548 21.6303 13.71 21.4623 13.902C21.2943 14.094 21.2103 14.304 21.2103 14.532V14.982C21.2103 15.222 21.2943 15.438 21.4623 15.63C21.6303 15.822 21.8643 15.984 22.1643 16.116C22.4643 16.26 22.8243 16.368 23.2443 16.44C23.6763 16.512 24.1443 16.548 24.6483 16.548C25.1523 16.548 25.6143 16.512 26.0343 16.44C26.4663 16.368 26.8323 16.26 27.1323 16.116C27.4323 15.984 27.6663 15.822 27.8343 15.63C28.0023 15.45 28.0863 15.24 28.0863 15V14.532ZM18.8883 2.85V0.942H20.6163V2.85H23.4603V4.344H15.7203V2.85H18.8883ZM19.7523 6.342C19.1883 6.342 18.7323 6.474 18.3843 6.738C18.0483 7.002 17.8803 7.326 17.8803 7.71V8.106C17.8803 8.49 18.0483 8.814 18.3843 9.078C18.7323 9.342 19.1883 9.474 19.7523 9.474C20.3163 9.474 20.7663 9.342 21.1023 9.078C21.4503 8.814 21.6243 8.49 21.6243 8.106V7.71C21.6243 7.326 21.4503 7.002 21.1023 6.738C20.7663 6.474 20.3163 6.342 19.7523 6.342Z" fill="#333333"/>
</svg>
