<svg width="127" height="61" viewBox="0 0 127 61" fill="none" xmlns="http://www.w3.org/2000/svg">
<g filter="url(#filter0_d_1381_4740)">
<rect x="4" y="4" width="119" height="53" rx="26.5" fill="#E4F1FF"/>
</g>
<path d="M68.185 30.35V27.545H65.38C65.34 27.865 65.235 28.18 65.065 28.49C64.905 28.8 64.68 29.075 64.39 29.315C64.11 29.555 63.765 29.75 63.355 29.9C62.955 30.04 62.495 30.11 61.975 30.11C61.405 30.11 60.905 30.025 60.475 29.855C60.045 29.685 59.685 29.465 59.395 29.195C59.115 28.915 58.9 28.605 58.75 28.265C58.61 27.915 58.54 27.565 58.54 27.215V26.645C58.54 26.295 58.61 25.95 58.75 25.61C58.9 25.26 59.115 24.95 59.395 24.68C59.685 24.4 60.045 24.175 60.475 24.005C60.905 23.835 61.405 23.75 61.975 23.75C62.495 23.75 62.955 23.825 63.355 23.975C63.755 24.115 64.095 24.305 64.375 24.545C64.665 24.775 64.89 25.04 65.05 25.34C65.22 25.64 65.33 25.95 65.38 26.27H68.185V23.27H69.655V30.35H68.185ZM69.655 31.025V37.1H61.03V31.025H62.5V32.78H68.185V31.025H69.655ZM61.975 28.835C62.295 28.835 62.58 28.785 62.83 28.685C63.08 28.585 63.29 28.455 63.46 28.295C63.63 28.135 63.76 27.955 63.85 27.755C63.94 27.555 63.985 27.35 63.985 27.14V26.72C63.985 26.51 63.94 26.305 63.85 26.105C63.76 25.905 63.63 25.73 63.46 25.58C63.29 25.42 63.08 25.29 62.83 25.19C62.58 25.09 62.295 25.04 61.975 25.04C61.655 25.04 61.37 25.09 61.12 25.19C60.87 25.29 60.66 25.42 60.49 25.58C60.32 25.73 60.19 25.905 60.1 26.105C60.01 26.305 59.965 26.51 59.965 26.72V27.14C59.965 27.35 60.01 27.555 60.1 27.755C60.19 27.955 60.32 28.135 60.49 28.295C60.66 28.455 60.87 28.585 61.12 28.685C61.37 28.785 61.655 28.835 61.975 28.835ZM68.185 35.84V34.025H62.5V35.84H68.185ZM72.7953 31.745V27.41H80.3853V25.625H72.7353V24.365H81.8553V28.67H74.2653V30.485H82.1853V31.745H78.0903V33.995H83.7003V35.255H71.0103V33.995H76.6203V31.745H72.7953ZM96.6055 33.995V35.255H83.9155V33.995H96.6055ZM94.9855 31.07H85.6255V24.455H94.8205V25.73H87.1105V29.795H94.9855V31.07Z" fill="#0A81CE"/>
<path fill-rule="evenodd" clip-rule="evenodd" d="M48.1365 19.8625C46.954 18.6815 45.0258 18.7181 43.8892 19.943L38.864 25.3577C38.6438 25.5951 38.4768 25.8767 38.3743 26.1837L37.6171 28.4525C37.2219 29.6366 38.3498 30.7631 39.5354 30.3684L41.8071 29.6121C42.1145 29.5098 42.3965 29.343 42.6341 29.123L48.0558 24.1043C49.2822 22.969 49.3189 21.0434 48.1365 19.8625ZM37.4736 24.0707C37.0698 24.5059 36.7637 25.0221 36.5759 25.585L35.8186 27.8538C34.9294 30.5179 37.4673 33.0525 40.1348 32.1645L42.4065 31.4082C42.9701 31.2206 43.487 30.9149 43.9227 30.5116L46.7346 27.9088C46.9663 27.6943 47.3425 27.8404 47.3636 28.1552C47.4108 28.8584 47.4404 29.5755 47.4404 30.3016C47.4404 30.6741 47.4325 31.0442 47.4185 31.4112C47.4176 31.4384 47.4196 31.4655 47.4237 31.4924C47.4384 31.5905 47.4435 31.6916 47.4384 31.7945C47.3742 33.0715 47.2412 34.316 47.1097 35.4924C46.9605 36.8259 46.2473 37.9846 45.2277 38.734C44.5821 39.2187 43.8039 39.543 42.9573 39.6409C41.6984 39.7863 40.3568 39.9365 38.9789 39.9985C38.8907 40.0024 38.8038 39.9988 38.7191 39.9882C38.6962 39.9853 38.6731 39.9838 38.65 39.9845C38.3482 39.9945 38.0445 40 37.7392 40C35.9022 40 34.1223 39.802 32.4831 39.6127C30.3295 39.3638 28.6101 37.6509 28.3686 35.4924C28.186 33.8596 28.0001 32.0949 28.0001 30.2734C28.0001 29.9009 28.0078 29.5308 28.0218 29.1637C28.0228 29.1366 28.0208 29.1094 28.0167 29.0825C28.002 28.9844 27.9968 28.8834 28.0019 28.7805C28.0661 27.5035 28.1991 26.2589 28.3307 25.0825C28.4798 23.749 29.1931 22.5903 30.2127 21.8409C30.8584 21.3562 31.6365 21.0319 32.4831 20.9341C33.7419 20.7887 35.0836 20.6385 36.4615 20.5765C36.5497 20.5725 36.6365 20.5761 36.7213 20.5868C36.7442 20.5897 36.7673 20.5912 36.7904 20.5904C37.0922 20.5804 37.3959 20.5749 37.7012 20.5749C38.4168 20.5749 39.1238 20.605 39.8172 20.6529C40.1318 20.6746 40.2772 21.0498 40.0628 21.2808L37.4736 24.0707Z" fill="#0A81CE"/>
<defs>
<filter id="filter0_d_1381_4740" x="0" y="0" width="127" height="61" filterUnits="userSpaceOnUse" color-interpolation-filters="sRGB">
<feFlood flood-opacity="0" result="BackgroundImageFix"/>
<feColorMatrix in="SourceAlpha" type="matrix" values="0 0 0 0 0 0 0 0 0 0 0 0 0 0 0 0 0 0 127 0" result="hardAlpha"/>
<feOffset/>
<feGaussianBlur stdDeviation="2"/>
<feComposite in2="hardAlpha" operator="out"/>
<feColorMatrix type="matrix" values="0 0 0 0 0.704167 0 0 0 0 0.704167 0 0 0 0 0.704167 0 0 0 0.25 0"/>
<feBlend mode="normal" in2="BackgroundImageFix" result="effect1_dropShadow_1381_4740"/>
<feBlend mode="normal" in="SourceGraphic" in2="effect1_dropShadow_1381_4740" result="shape"/>
</filter>
</defs>
</svg>
