<svg width="26" height="15" viewBox="0 0 26 15" fill="none" xmlns="http://www.w3.org/2000/svg">
<path d="M12.795 6.69V7.95H0.105V6.69H12.795ZM10.845 0.78V2.04H3.45V4.245H10.935V5.505H1.98V0.78H10.845ZM6.45 14.49C5.79 14.49 5.19 14.425 4.65 14.295C4.12 14.175 3.665 14 3.285 13.77C2.915 13.55 2.63 13.285 2.43 12.975C2.23 12.675 2.13 12.35 2.13 12V11.49C2.13 11.13 2.23 10.8 2.43 10.5C2.63 10.19 2.915 9.925 3.285 9.705C3.665 9.485 4.12 9.315 4.65 9.195C5.19 9.065 5.79 9 6.45 9C7.11 9 7.705 9.065 8.235 9.195C8.765 9.315 9.215 9.49 9.585 9.72C9.965 9.94 10.255 10.2 10.455 10.5C10.665 10.8 10.77 11.13 10.77 11.49V12C10.77 12.35 10.67 12.675 10.47 12.975C10.27 13.275 9.98 13.535 9.6 13.755C9.23 13.985 8.775 14.165 8.235 14.295C7.705 14.425 7.11 14.49 6.45 14.49ZM6.45 10.215C6.03 10.215 5.645 10.255 5.295 10.335C4.945 10.405 4.645 10.505 4.395 10.635C4.145 10.755 3.95 10.9 3.81 11.07C3.67 11.23 3.6 11.4 3.6 11.58V11.91C3.6 12.09 3.67 12.26 3.81 12.42C3.95 12.59 4.145 12.735 4.395 12.855C4.645 12.985 4.945 13.085 5.295 13.155C5.645 13.235 6.03 13.275 6.45 13.275C6.87 13.275 7.255 13.235 7.605 13.155C7.955 13.085 8.255 12.985 8.505 12.855C8.755 12.735 8.95 12.59 9.09 12.42C9.23 12.26 9.3 12.09 9.3 11.91V11.58C9.3 11.4 9.23 11.23 9.09 11.07C8.95 10.9 8.755 10.755 8.505 10.635C8.255 10.505 7.955 10.405 7.605 10.335C7.255 10.255 6.87 10.215 6.45 10.215ZM25.7003 7.665V8.895H13.0103V7.665H18.6053V6.525H14.8403V3.045H22.3403V1.95H14.7653V0.734999H23.7953V4.215H16.2953V5.31H24.0653V6.525H20.1053V7.665H25.7003ZM14.6453 9.945H23.9303V14.265H22.4453V11.19H14.6453V9.945Z" fill="#A3A3A3"/>
</svg>
