<svg width="31" height="17" viewBox="0 0 31 17" fill="none" xmlns="http://www.w3.org/2000/svg">
<path d="M13.266 8.042H2.376V0.877999H13.122V1.958H3.618V3.92H13.032V5H3.618V6.962H13.266V8.042ZM15.3 9.968V11.066H8.388V16.448H7.11V11.066H0.18V9.968H15.3ZM20.0943 13.028V9.032H17.2503V7.97H19.7883V2.48H17.4123V1.418H29.0403V2.48H26.6643V7.97H29.2023V9.032H26.3583V13.028H30.7863V14.126H15.6663V13.028H20.0943ZM21.0483 7.97H25.4043V2.48H21.0483V7.97ZM21.3543 13.028H25.0983V9.032H21.3543V13.028Z" fill="#575757"/>
</svg>
