<svg width="31" height="17" viewBox="0 0 31 17" fill="none" xmlns="http://www.w3.org/2000/svg">
<path d="M13.392 8.348H2.178V0.77H13.14V2.264H3.942V3.812H13.014V5.306H3.942V6.854H13.392V8.348ZM6.84 16.52V11.372H0.126V9.86H15.354V11.372H8.64V16.52H6.84ZM29.2563 7.808V9.284H26.5743V12.794H30.8403V14.306H15.6123V12.794H19.8783V9.284H17.1963V7.808H19.5183V2.786H17.3223V1.31H29.1123V2.786H26.9523V7.808H29.2563ZM21.3003 7.808H25.1703V2.786H21.3003V7.808ZM21.6423 12.794H24.8103V9.284H21.6423V12.794Z" fill="#333333"/>
</svg>
